<?xml version="1.0" encoding="UTF-8"?>
<svg version="1.1" xmlns="http://www.w3.org/2000/svg" width="512" height="512">
<path d="M0 0 C3.65455465 2.99795193 6.95094584 6.28367305 10.22998047 9.68359375 C10.89384766 10.31652344 11.55771484 10.94945313 12.24169922 11.6015625 C24.94209987 24.53028496 28.74945085 42.60740589 28.65014648 60.03881836 C28.16599635 79.04751167 20.6037282 95.14055807 7.22998047 108.68359375 C3.42650159 111.9564879 -0.62268182 114.86169386 -4.77001953 117.68359375 C-2.59985843 125.38319164 0.07090819 132.83577402 2.91748047 140.30859375 C3.33320313 141.40816406 3.74892578 142.50773438 4.17724609 143.640625 C5.19179958 146.3227779 6.20942653 149.00371958 7.22998047 151.68359375 C7.83245605 151.61253418 8.43493164 151.54147461 9.05566406 151.46826172 C36.56262654 148.3411654 62.20467723 151.05196474 84.66748047 168.80859375 C86.19644293 170.09062753 87.71809485 171.38146523 89.22998047 172.68359375 C90.43708373 173.68507822 91.64521551 174.68532616 92.85498047 175.68359375 C93.63873047 176.34359375 94.42248047 177.00359375 95.22998047 177.68359375 C97.98319432 176.37662359 100.42631321 174.92776508 102.89013672 173.13671875 C103.94273682 172.37439941 103.94273682 172.37439941 105.01660156 171.59667969 C105.7676416 171.04786133 106.51868164 170.49904297 107.29248047 169.93359375 C108.07961426 169.36157227 108.86674805 168.78955078 109.67773438 168.20019531 C122.60168388 158.79399209 135.46984107 149.31100432 148.22998047 139.68359375 C147.94123047 138.71421875 147.65248047 137.74484375 147.35498047 136.74609375 C142.13010312 118.28346529 143.15771478 102.28643104 152.21044922 85.01953125 C160.03651472 72.0921426 172.48789978 62.75912723 186.99560547 58.60546875 C203.94949997 54.68091725 219.95227302 56.92138652 235.04248047 65.93359375 C247.94024601 74.7154547 257.88896645 88.31588664 260.91357422 103.84765625 C262.92195938 121.8487381 260.25493738 137.6446418 249.15966797 152.4453125 C238.66564988 164.72594658 225.46040273 172.26048832 209.39404297 174.46484375 C193.78957583 175.54367111 179.66208361 171.80579408 167.16748047 162.37109375 C166.52810547 161.81421875 165.88873047 161.25734375 165.22998047 160.68359375 C159.92556718 162.3246797 155.90958033 165.69496145 151.54248047 168.99609375 C149.83996668 170.26774579 148.13682615 171.53855912 146.43310547 172.80859375 C145.56878906 173.45441406 144.70447266 174.10023438 143.81396484 174.765625 C139.83683479 177.71765955 135.81572069 180.60739262 131.79248047 183.49609375 C124.8728977 188.47427589 118.02057425 193.53073141 111.22998047 198.68359375 C112.51477072 202.65532514 113.93038713 206.55143819 115.43823242 210.44165039 C124.27657908 233.37556564 124.1728708 256.37374054 114.60498047 279.24609375 C114.20021484 280.15488281 113.79544922 281.06367188 113.37841797 282 C112.15848388 284.85066231 111.17495332 287.73163726 110.22998047 290.68359375 C111.17615234 291.38742187 112.12232422 292.09125 113.09716797 292.81640625 C120.53455391 298.36396462 127.91958955 303.96952436 135.22998047 309.68359375 C140.8526184 314.0781197 146.50739843 318.42000272 152.22998047 322.68359375 C160.26242447 328.66987621 168.16590714 334.81673205 176.05761719 340.98681641 C179.77695088 343.89189274 183.50364139 346.78751204 187.22998047 349.68359375 C188.09623047 349.16796875 188.96248047 348.65234375 189.85498047 348.12109375 C193.57683442 346.00623173 197.35881254 344.01174375 201.16748047 342.05859375 C202.31087891 341.46820313 203.45427734 340.8778125 204.63232422 340.26953125 C217.73068032 334.49544593 233.75390518 334.91397009 247.19091797 339.4296875 C264.09247538 346.40320926 275.30102601 359.45410304 282.20654297 376.02734375 C287.19390139 390.7563649 285.1970028 407.72087583 278.90966797 421.59765625 C271.16897943 436.9521368 258.45569711 446.45763038 242.42138672 451.80859375 C227.40287186 455.92627714 211.39181061 454.02696627 197.47998047 447.12109375 C182.97272101 438.42547739 173.19300813 425.54286763 168.54638672 409.29296875 C165.34228639 395.59267768 167.74065247 382.78072022 172.22998047 369.68359375 C162.97573688 362.5538026 153.70159367 355.45033232 144.41943359 348.35693359 C140.15044209 345.09425877 135.88270613 341.82994188 131.61474609 338.56591797 C128.02337503 335.81942936 124.43167896 333.07336777 120.83935547 330.328125 C112.29129378 323.79495676 103.75269926 317.24979275 95.22998047 310.68359375 C94.50294922 311.22886719 94.50294922 311.22886719 93.76123047 311.78515625 C92.33747789 312.85297068 90.91150311 313.91782559 89.48388672 314.98046875 C88.12064627 316.01057765 86.76996976 317.05804448 85.44482422 318.13671875 C66.90550592 332.96817339 43.81954362 338.7130618 20.35498047 337.55859375 C8.69523625 336.26139064 -2.11287533 332.41652486 -12.77001953 327.68359375 C-14.4338261 327.00982084 -16.09963621 326.3408926 -17.77001953 325.68359375 C-18.11033203 326.14918701 -18.45064453 326.61478027 -18.80126953 327.09448242 C-26.42039529 337.50619002 -34.14007619 347.83189112 -41.98095703 358.07763672 C-47.6815949 365.53802453 -53.25889855 373.08245019 -58.77001953 380.68359375 C-57.35890473 383.77748181 -55.56561406 386.50000851 -53.6472168 389.30102539 C-42.7721325 405.36704876 -38.75948979 423.5292061 -41.77001953 442.68359375 C-45.70565653 461.40134672 -55.76238869 477.53100089 -71.42236328 488.64453125 C-89.45817676 499.6301726 -110.20000337 503.14394663 -130.89501953 498.12109375 C-150.3288202 491.9738871 -165.43827769 479.17906698 -175.00830078 461.3203125 C-183.51204385 444.47974333 -184.05179595 424.58066783 -178.50634766 406.76074219 C-172.15555563 388.84544425 -159.51746821 375.27574963 -142.95751953 366.30859375 C-124.794505 357.94029386 -105.6042747 357.18411527 -86.77001953 363.68359375 C-85.42037109 364.24433594 -85.42037109 364.24433594 -84.04345703 364.81640625 C-81.70838773 365.86179167 -81.70838773 365.86179167 -78.77001953 365.68359375 C-77.30199137 364.24650994 -77.30199137 364.24650994 -75.97705078 362.265625 C-75.43725586 361.51627686 -74.89746094 360.76692871 -74.34130859 359.99487305 C-73.7609082 359.17027588 -73.18050781 358.34567871 -72.58251953 357.49609375 C-71.32518543 355.74741634 -70.06600043 354.00006859 -68.80517578 352.25390625 C-68.14662598 351.33899414 -67.48807617 350.42408203 -66.80957031 349.48144531 C-63.45846326 344.88440356 -59.98683047 340.38112173 -56.52001953 335.87109375 C-50.43147017 327.92518204 -44.50583246 319.8874608 -38.77001953 311.68359375 C-40.39962418 307.92296765 -42.80693974 305.09057034 -45.39501953 301.93359375 C-53.01234796 292.25666807 -58.14639313 281.64013384 -61.70751953 269.87109375 C-61.90708252 269.21463867 -62.10664551 268.55818359 -62.31225586 267.88183594 C-63.94285318 262.02244477 -64.19732605 256.98322201 -64.77001953 250.68359375 C-80.94001953 249.69359375 -97.11001953 248.70359375 -113.77001953 247.68359375 C-114.43001953 250.65359375 -115.09001953 253.62359375 -115.77001953 256.68359375 C-122.57686948 270.66523148 -133.89521339 281.09341395 -148.12939453 287.1015625 C-164.1163082 292.60949171 -180.5792162 292.32586004 -196.02783203 285.17578125 C-211.62848368 276.59741781 -220.97806419 264.38931618 -226.77001953 247.68359375 C-230.14982808 235.41295125 -228.67207869 220.20830236 -223.77001953 208.68359375 C-223.27888672 207.40355469 -223.27888672 207.40355469 -222.77783203 206.09765625 C-216.6234644 191.85725816 -203.96936739 182.70411595 -190.23095703 176.5078125 C-174.73961052 171.31944089 -158.71226022 172.36695344 -143.88330078 178.96875 C-129.24402384 186.29859717 -119.31707029 198.33290764 -113.68017578 213.54296875 C-112.70316821 216.91427384 -112.18555105 220.20187703 -111.77001953 223.68359375 C-110.88443359 223.67199219 -109.99884766 223.66039062 -109.08642578 223.6484375 C-102.14106164 223.59784692 -95.26317296 223.71706122 -88.33251953 224.18359375 C-80.13665234 224.73427428 -71.98124552 224.78305678 -63.77001953 224.68359375 C-63.35042969 223.19472656 -63.35042969 223.19472656 -62.92236328 221.67578125 C-55.29019901 195.45078066 -40.27792303 175.4544958 -16.77001953 161.68359375 C-18.94018063 153.98399586 -21.61094725 146.53141348 -24.45751953 139.05859375 C-24.87324219 137.95902344 -25.28896484 136.85945312 -25.71728516 135.7265625 C-26.73183864 133.0444096 -27.74946559 130.36346792 -28.77001953 127.68359375 C-29.35267578 127.70454102 -29.93533203 127.72548828 -30.53564453 127.74707031 C-53.61499877 128.4637641 -73.23285274 124.67474226 -90.85986328 108.5703125 C-104.0401463 95.8767649 -111.51770884 78.13850019 -112.24316406 59.95898438 C-112.46596514 41.08165678 -106.22632801 22.48567636 -93.05126953 8.71362305 C-68.60409749 -15.51107302 -28.37941725 -21.10645763 0 0 Z M-76.21142578 26.73828125 C-85.23423336 37.99983056 -88.95274689 49.91273679 -87.36767578 64.34765625 C-85.93052884 72.15417039 -83.46946302 78.29860165 -78.77001953 84.68359375 C-78.03332031 85.72773438 -78.03332031 85.72773438 -77.28173828 86.79296875 C-70.10114731 95.98697605 -59.68627108 101.41243783 -48.31298828 103.34375 C-35.4715144 104.5755121 -24.39984018 102.07936085 -13.95751953 94.37109375 C-4.79489431 86.68310442 2.72009868 76.90743122 4.22998047 64.68359375 C5.33283424 50.99123996 2.62400915 39.61427946 -5.77001953 28.68359375 C-6.63626953 27.38421875 -6.63626953 27.38421875 -7.52001953 26.05859375 C-15.46928818 17.66769907 -26.38130275 12.22212865 -37.93408203 11.48046875 C-53.21398357 11.27351749 -65.5426701 15.32757373 -76.21142578 26.73828125 Z M175.22998047 94.68359375 C169.22579966 103.51327141 166.98583844 112.81593876 168.85498047 123.37109375 C171.33090642 132.43855765 176.63087363 140.39401196 184.79638672 145.19140625 C194.12523299 149.94409358 203.31196332 151.34229962 213.56982422 148.8828125 C222.32977622 145.60205828 229.20928211 139.91693539 233.66748047 131.62109375 C238.19554748 121.1796607 238.35493069 111.33063508 234.22998047 100.68359375 C229.60441158 92.44114701 222.06414506 85.52287267 213.13232422 82.34375 C197.84624651 78.86683596 185.39152342 82.98295308 175.22998047 94.68359375 Z M-18.77001953 192.68359375 C-19.38361328 193.20308594 -19.99720703 193.72257812 -20.62939453 194.2578125 C-31.78835278 204.41860705 -39.86891354 220.61123339 -40.90917969 235.70239258 C-41.81527 256.88392741 -37.09926396 274.5172667 -22.77001953 290.68359375 C-22.25052734 291.2971875 -21.73103516 291.91078125 -21.19580078 292.54296875 C-11.03500623 303.701927 5.15762011 311.78248776 20.2487793 312.82275391 C41.43031413 313.72884422 59.06365342 309.01283818 75.22998047 294.68359375 C75.84357422 294.16410156 76.45716797 293.64460938 77.08935547 293.109375 C88.24831372 282.94858045 96.32887448 266.75595411 97.36914062 251.66479492 C98.27523094 230.48326009 93.5592249 212.8499208 79.22998047 196.68359375 C78.71048828 196.07 78.19099609 195.45640625 77.65576172 194.82421875 C67.49496716 183.6652605 51.30234083 175.58469974 36.21118164 174.54443359 C15.02964681 173.63834328 -2.60369248 178.35434932 -18.77001953 192.68359375 Z M-197.45361328 211.8203125 C-203.41196255 220.2539404 -204.74705056 228.45885047 -203.77001953 238.68359375 C-201.1262639 248.81387233 -195.38819094 257.15527933 -186.39501953 262.62109375 C-178.25889304 266.64736183 -169.63286724 267.72700612 -160.77001953 265.68359375 C-151.65200206 262.3437876 -143.89219593 257.47523098 -139.20751953 248.78515625 C-134.91280693 239.09765113 -133.78131281 230.98291152 -136.77001953 220.68359375 C-138.17404481 217.48498686 -139.84525452 214.59435801 -141.77001953 211.68359375 C-142.34751953 210.79671875 -142.92501953 209.90984375 -143.52001953 208.99609375 C-150.67462604 201.64274817 -159.52841685 197.69325488 -169.77001953 197.30859375 C-181.49420754 197.74962904 -190.13500571 202.82660129 -197.45361328 211.8203125 Z M200.22998047 371.68359375 C193.91004571 379.46823442 190.57083252 388.03015366 191.44091797 398.1328125 C193.32036314 409.42721413 198.73753193 418.32729011 208.06591797 424.99609375 C216.02904903 429.56565419 226.13484242 430.70449755 234.96044922 428.4375 C244.82948268 425.15914637 251.92358655 419.80816216 256.66748047 410.43359375 C260.82581886 401.50506335 262.12772676 391.9693661 258.79248047 382.43359375 C254.18159888 372.543823 245.95733196 365.40040877 235.97998047 361.37109375 C222.28766046 358.86083508 210.24534004 361.74617472 200.22998047 371.68359375 Z M-139.77001953 393.68359375 C-140.76001953 394.40546875 -141.75001953 395.12734375 -142.77001953 395.87109375 C-151.16553261 403.10482565 -156.49784769 414.88717912 -157.70751953 425.74609375 C-158.28622085 438.80091465 -154.41464568 450.43113706 -145.96142578 460.36328125 C-138.03990641 468.75077235 -127.47014218 474.99166744 -115.77392578 475.921875 C-103.93960109 476.1770988 -93.32840376 473.91582253 -83.77001953 466.68359375 C-83.16673828 466.24273437 -82.56345703 465.801875 -81.94189453 465.34765625 C-73.20639425 458.47319734 -69.20011051 448.9738667 -65.77001953 438.68359375 C-64.75614806 424.69216748 -66.02663741 412.55406629 -75.31298828 401.31640625 C-75.79380859 400.77757812 -76.27462891 400.23875 -76.77001953 399.68359375 C-77.91470703 398.38421875 -77.91470703 398.38421875 -79.08251953 397.05859375 C-97.01883667 381.20789488 -120.28436454 379.39411342 -139.77001953 393.68359375 Z " fill="#000000" transform="translate(227.77001953125,12.31640625)"/>
</svg>
