<?xml version="1.0" encoding="UTF-8"?>
<svg version="1.1" xmlns="http://www.w3.org/2000/svg" width="512" height="512">
<path d="M0 0 C1.80630048 -0.00542874 3.61259652 -0.0125556 5.41888428 -0.02124023 C10.29455794 -0.03937925 15.16989074 -0.0324473 20.0455699 -0.01972389 C25.15747425 -0.00955653 30.26935054 -0.01899905 35.3812561 -0.02526855 C43.95702327 -0.03253015 52.53265228 -0.02299225 61.10839844 -0.00390625 C71.02145836 0.01790129 80.93418967 0.010777 90.84724176 -0.01121187 C99.36979275 -0.02935865 107.89224481 -0.03192898 116.41480887 -0.0214572 C121.50041383 -0.01522366 126.58586419 -0.0143837 131.6714592 -0.02760315 C136.44705123 -0.03915195 141.22221848 -0.03115374 145.99776459 -0.00802612 C147.75012888 -0.00273563 149.50252891 -0.00425863 151.254879 -0.01307678 C153.64618186 -0.02400174 156.03612174 -0.01030752 158.42733765 0.00964355 C159.12120461 0.00072067 159.81507157 -0.00820222 160.5299648 -0.0173955 C165.2454131 0.05896771 167.62163068 1.19880472 170.93994141 4.51757812 C172.18171661 7.00112854 172.06030821 8.64865435 172.0534668 11.42626953 C172.05339127 12.44717682 172.05331573 13.46808411 172.05323792 14.51992798 C172.04807663 15.62516815 172.04291534 16.73040833 172.03759766 17.86914062 C172.03547523 19.56289322 172.03547523 19.56289322 172.03330994 21.29086304 C172.02769884 24.90812801 172.01514443 28.52533177 172.00244141 32.14257812 C171.99742784 34.5904939 171.99286468 37.03841064 171.98876953 39.48632812 C171.9777258 45.49676579 171.96097684 51.50716758 171.93994141 57.51757812 C173.02098145 57.49872559 174.10202148 57.47987305 175.21582031 57.46044922 C176.65771025 57.44519733 178.09960516 57.43041088 179.54150391 57.41601562 C180.25121338 57.4023999 180.96092285 57.38878418 181.69213867 57.37475586 C194.63913614 57.27808098 205.77162919 63.40966644 215.12744141 72.01757812 C225.43776085 82.76628911 229.37392564 95.99534173 229.3034668 110.58032227 C228.99411244 124.04204893 223.76519165 135.48113506 214.62744141 145.33007812 C202.27003519 156.85997947 188.451301 159.51757812 171.93994141 159.51757812 C171.93994141 171.39757812 171.93994141 183.27757812 171.93994141 195.51757812 C176.50193359 195.47117187 181.06392578 195.42476562 185.76416016 195.37695312 C188.65806319 195.3565096 191.55187691 195.33725365 194.44580078 195.32226562 C199.03705383 195.29837405 203.62798714 195.27014162 208.21899414 195.21582031 C211.92133393 195.17228905 215.62333075 195.14842583 219.32590675 195.13806915 C220.7369101 195.13069071 222.14789513 195.11628199 223.55875206 195.0946579 C225.53808588 195.06553334 227.51776642 195.06394346 229.49731445 195.06347656 C231.18608955 195.05015289 231.18608955 195.05015289 232.90898132 195.03656006 C236.62203702 195.62582776 238.26949201 196.92529126 240.93994141 199.51757812 C242.65478086 202.94725703 242.21620902 206.75262885 241.93994141 210.51757812 C241.60994141 211.46632813 241.27994141 212.41507813 240.93994141 213.39257812 C238.56184034 220.82414395 239.41793746 228.12933776 242.62353516 235.16601562 C246.92669671 242.85296891 252.57588362 247.66841809 260.93994141 250.51757812 C270.43707941 252.70191987 278.38404581 250.84416717 286.68994141 245.95507812 C292.39348285 241.9302386 295.75740655 236.06518269 297.93994141 229.51757812 C298.06156329 227.0823121 298.1153827 224.64334946 298.12744141 222.20507812 C298.14162109 220.90957031 298.15580078 219.6140625 298.17041016 218.27929688 C297.94688232 214.63086791 297.21093925 211.91835614 295.93994141 208.51757812 C295.42793477 204.42152505 295.75330236 202.84730711 297.81494141 199.20507812 C299.93994141 196.51757812 299.93994141 196.51757812 301.93994141 195.51757812 C303.52582891 195.40728266 305.11619298 195.35847201 306.70581055 195.34057617 C308.19359764 195.32132332 308.19359764 195.32132332 309.71144104 195.30168152 C311.32695107 195.29060112 311.32695107 195.29060112 312.97509766 195.27929688 C314.63683266 195.26718925 314.63683266 195.26718925 316.33213806 195.25483704 C318.68340485 195.24098412 321.03469185 195.23026739 323.38598633 195.22241211 C326.96361162 195.20526424 330.54029731 195.16139535 334.11767578 195.1171875 C336.40347628 195.10705493 338.68928464 195.0985406 340.97509766 195.09179688 C342.56935326 195.06553474 342.56935326 195.06553474 344.19581604 195.03874207 C353.59507595 195.06586263 362.00739115 197.96648399 368.93994141 204.51757812 C374.71196171 211.57965827 377.18162072 218.36201295 377.20736694 227.54937744 C377.21189806 228.22138333 377.21642917 228.89338922 377.22109759 229.58575892 C377.2336726 231.81863744 377.23212574 234.05126987 377.23046875 236.28417969 C377.23645838 237.89296275 377.24326493 239.50174295 377.25082397 241.11051941 C377.26844834 245.46815798 377.27317789 249.82571794 377.27445555 254.18338871 C377.27587988 256.91007612 377.28015487 259.63674373 377.28544998 262.36342621 C377.30393946 271.88796755 377.31212207 281.41245302 377.31054688 290.93701172 C377.30934622 299.79558141 377.33043632 308.65390717 377.3620342 317.51241517 C377.38824457 325.13390817 377.39891216 332.75532174 377.39763606 340.37685943 C377.39712776 344.92171931 377.40273716 349.46636234 377.42399216 354.01117706 C377.44345465 358.28932322 377.44344473 362.56704748 377.42895889 366.84520912 C377.42687949 368.40800663 377.43151948 369.97083111 377.44367981 371.53358269 C377.53002345 383.40661848 376.45980195 393.85274065 367.93994141 402.79492188 C361.44454169 408.38959233 355.12215683 410.63576845 346.6559906 410.65738583 C344.70618506 410.66592269 344.70618506 410.66592269 342.71698952 410.67463201 C341.27104323 410.67592463 339.82509684 410.67711266 338.37915039 410.6782074 C336.84569863 410.68293857 335.31224812 410.68808951 333.77879906 410.69362503 C329.55821963 410.70753369 325.33764883 410.71511545 321.11705232 410.72159803 C317.49850268 410.72796903 313.8799672 410.73803915 310.26142639 410.74815869 C298.33891479 410.78148378 286.41639457 410.80300465 274.49385166 410.82135853 C271.3890868 410.82615389 268.28432229 410.83113717 265.1795578 410.83616376 C245.89760524 410.86713595 226.61564967 410.89382016 207.3336792 410.91058254 C202.86730952 410.91453202 198.40093989 410.91853501 193.93457031 410.92260742 C192.26943594 410.92411996 192.26943594 410.92411996 190.5706625 410.92566306 C172.59231192 410.94266596 154.61409909 410.98377091 136.63581574 411.03463041 C118.175749 411.086423 99.71575307 411.11552699 81.25561428 411.12277943 C70.8918171 411.12743965 60.52824546 411.14216977 50.16452026 411.18252373 C41.33713674 411.21685385 32.51001947 411.23075094 23.68257302 411.21809959 C19.18070025 411.21227967 14.67939037 411.21608936 10.17760277 411.24626923 C6.05037849 411.27371148 1.92411484 411.27307387 -2.20313156 411.25075877 C-3.69044393 411.2475468 -5.17782155 411.25433999 -6.66502583 411.272556 C-17.2037511 411.393739 -26.1739172 409.76976562 -34.29608727 402.522376 C-43.15639512 393.39421253 -43.65186427 383.3052093 -43.609375 371.17260742 C-43.61808136 369.52573731 -43.6284517 367.87887529 -43.64035034 366.23202515 C-43.66702555 361.77932294 -43.66829941 357.32696134 -43.66322374 352.87419486 C-43.66107681 349.14685451 -43.67087034 345.41958201 -43.68043458 341.69225627 C-43.70258943 332.89252301 -43.70352027 324.09296052 -43.69140625 315.29321289 C-43.67933292 306.2390757 -43.70394015 297.18556059 -43.74654639 288.13152951 C-43.7818676 280.3367051 -43.79376703 272.54207789 -43.7872709 264.74717647 C-43.78365844 260.10106622 -43.78878321 255.45539962 -43.81669998 250.80936241 C-43.84199366 246.43660714 -43.8378426 242.06481561 -43.8118782 237.69207382 C-43.80717665 236.09583385 -43.81250784 234.49952459 -43.82912445 232.90336418 C-43.9168938 223.81011232 -43.17843614 216.97569367 -38.15106773 209.04258442 C-36.76435588 206.5499712 -36.76435588 206.5499712 -37.75261307 203.92534447 C-38.5313497 202.49123818 -39.31552131 201.0600295 -40.11105919 199.63517475 C-44.142916 192.2338215 -43.63803765 184.35708635 -43.609375 176.17260742 C-43.61808136 174.52573731 -43.6284517 172.87887529 -43.64035034 171.23202515 C-43.66702555 166.77932294 -43.66829941 162.32696134 -43.66322374 157.87419486 C-43.66107681 154.14685451 -43.67087034 150.41958201 -43.68043458 146.69225627 C-43.70258943 137.89252301 -43.70352027 129.09296052 -43.69140625 120.29321289 C-43.67933292 111.2390757 -43.70394015 102.18556059 -43.74654639 93.13152951 C-43.7818676 85.3367051 -43.79376703 77.54207789 -43.7872709 69.74717647 C-43.78365844 65.10106622 -43.78878321 60.45539962 -43.81669998 55.80936241 C-43.84199366 51.43660714 -43.8378426 47.06481561 -43.8118782 42.69207382 C-43.80717665 41.09583385 -43.81250784 39.49952459 -43.82912445 37.90336418 C-43.93415028 27.02227237 -42.49300313 18.06745611 -35.28684425 9.37981701 C-25.42487447 -0.21401948 -12.89088451 -0.06536269 0 0 Z M-20.06005859 24.51757812 C-23.16066834 29.16849274 -23.18573427 33.34611825 -23.20050049 38.84225464 C-23.20621063 40.11796326 -23.21192078 41.39367187 -23.21780396 42.70803833 C-23.21904915 44.11444082 -23.22017428 45.52084342 -23.22119141 46.92724609 C-23.2258227 48.41414513 -23.23084777 49.90104297 -23.23623657 51.38793945 C-23.24933063 55.42104217 -23.2557994 59.45412826 -23.26024723 63.4872489 C-23.26318215 66.00852143 -23.26728769 68.52978946 -23.2717514 71.05105972 C-23.28541701 78.94423236 -23.29508886 86.83739466 -23.29895329 94.7305783 C-23.30343512 103.83384508 -23.32099268 112.9369618 -23.34995389 122.04018295 C-23.37158128 129.08322547 -23.3816581 136.12622579 -23.38299441 143.16930115 C-23.38404147 147.37309745 -23.38992836 151.5767525 -23.40781403 155.78051376 C-23.42431358 159.73517479 -23.42644116 163.68958863 -23.41767502 167.64427185 C-23.41690571 169.09264412 -23.42123335 170.5410298 -23.43113327 171.98936844 C-23.62036997 182.19296744 -23.62036997 182.19296744 -20.06005859 191.51757812 C-16.61104182 194.75103135 -13.41087953 195.63812746 -8.75976562 195.65942383 C-7.89521759 195.66645828 -7.03066956 195.67349274 -6.1399231 195.68074036 C-4.74300735 195.68698677 -4.74300735 195.68698677 -3.31787109 195.69335938 C-1.34520414 195.71655518 0.62745215 195.74067241 2.60009766 195.765625 C5.70970827 195.8007549 8.8189259 195.83009531 11.92871094 195.84350586 C14.93033343 195.85898305 17.93080944 195.89918769 20.93212891 195.94335938 C21.8593576 195.94145096 22.7865863 195.93954254 23.74191284 195.93757629 C27.98417924 196.01791017 30.34342588 196.15276074 34.03051758 198.40771484 C36.31428052 200.93121303 36.54125982 201.97444283 36.37744141 205.33007812 C36.33490234 206.21179688 36.29236328 207.09351563 36.24853516 208.00195312 C35.84499449 211.29157577 34.86462835 214.33896674 33.93994141 217.51757812 C32.84558625 225.69397453 35.06073153 233.23193394 39.63525391 240.04101562 C45.46951007 247.15077719 52.2226178 251.26563643 61.37744141 252.51757812 C70.60289922 252.93395986 78.00253275 250.39249983 85.00244141 244.39257812 C90.91535491 238.67040376 93.71861692 232.71475601 94.93994141 224.51757812 C94.98642501 219.51727055 94.45199834 214.99685372 92.81494141 210.26757812 C91.38663658 205.77862012 92.48268521 201.88934671 93.93994141 197.51757812 C96.96050302 196.51072425 99.07548755 196.36385126 102.23754883 196.31225586 C103.31844284 196.29231064 104.39933685 196.27236542 105.51298523 196.2518158 C107.26153557 196.22674706 107.26153557 196.22674706 109.04541016 196.20117188 C110.23975174 196.18039078 111.43409332 196.15960968 112.66462708 196.13819885 C116.48550583 196.07273537 120.30645416 196.01383303 124.12744141 195.95507812 C126.71533927 195.91188988 129.30323006 195.86827549 131.89111328 195.82421875 C138.2406488 195.71705721 144.59025374 195.61528472 150.93994141 195.51757812 C150.95207169 194.56037369 150.95207169 194.56037369 150.96444702 193.58383179 C151.05061116 186.93247806 151.15012013 180.28141828 151.25732422 173.63037109 C151.29556931 171.14930158 151.33042994 168.66817747 151.36181641 166.18701172 C151.40756342 162.61731474 151.4655431 159.04799219 151.52587891 155.47851562 C151.54320572 153.81881241 151.54320572 153.81881241 151.56088257 152.12557983 C151.75012845 142.21429453 151.75012845 142.21429453 153.93994141 137.51757812 C158.30025745 135.16971564 164.73203551 136.15968008 169.31494141 137.51757812 C178.08403116 139.93663737 185.86592977 138.60293132 193.93994141 134.51757812 C200.56749704 130.16683582 205.10125925 124.19863453 207.54931641 116.63476562 C209.1182008 108.13141223 208.68182621 99.85985137 203.93994141 92.51757812 C198.83414026 85.59445793 193.34383465 80.87833565 184.93994141 78.51757812 C181.48506953 78.20368811 181.48506953 78.20368811 177.93994141 78.26757812 C176.17650391 78.25984375 176.17650391 78.25984375 174.37744141 78.25195312 C170.90567085 78.5202263 168.21353177 79.3875168 164.93994141 80.51757812 C162.52587891 80.70507812 162.52587891 80.70507812 160.31494141 80.51757812 C159.58017578 80.47632813 158.84541016 80.43507812 158.08837891 80.39257812 C155.48153989 79.33088369 154.29112384 77.91415146 152.79495239 75.56072998 C150.94716421 71.14521729 151.3358002 66.27001465 151.33056641 61.55664062 C151.31403015 60.41093597 151.2974939 59.26523132 151.28045654 58.08480835 C151.23199992 54.4373436 151.21060972 50.79029577 151.18994141 47.14257812 C151.16177994 44.66469259 151.13185227 42.18682646 151.10009766 39.70898438 C151.02624136 33.64525791 150.97458503 27.58164859 150.93994141 21.51757812 C129.38260665 21.44751883 107.82529065 21.39460504 86.26786518 21.36214161 C76.25853484 21.34666811 66.2492752 21.32556933 56.23999023 21.29125977 C47.51661116 21.26137223 38.79328329 21.24200664 30.06985444 21.23531264 C25.45021011 21.23139929 20.83071229 21.22219231 16.21111488 21.20038795 C11.86339513 21.18003302 7.5158823 21.17374231 3.16811943 21.17825508 C1.57216391 21.17742944 -0.0237985 21.17145782 -1.61971283 21.1599617 C-3.79899085 21.14503275 -5.97748792 21.14862547 -8.15678406 21.15681458 C-9.37631618 21.1540492 -10.59584829 21.15128382 -11.85233593 21.14843464 C-15.39512111 21.55613699 -17.23636214 22.3743264 -20.06005859 24.51757812 Z M-21.06005859 220.51757812 C-22.65953313 225.14087088 -23.31169797 229.20605641 -23.320755 234.08276367 C-23.32783981 235.36122162 -23.33492462 236.63967957 -23.34222412 237.95687866 C-23.33993078 239.35601842 -23.33742115 240.75515785 -23.3347168 242.15429688 C-23.3390684 243.64149226 -23.34425304 245.1286854 -23.35020447 246.61587524 C-23.36355574 250.64062119 -23.3641776 254.66527301 -23.36164117 258.69003677 C-23.36056909 262.0548703 -23.36546074 265.41968496 -23.37024659 268.78451443 C-23.38132781 276.72387042 -23.38178661 284.66317909 -23.37573242 292.60253906 C-23.36968943 300.78405314 -23.38201504 308.96539538 -23.40330249 317.14688015 C-23.42093059 324.1814785 -23.42691805 331.2160222 -23.42366475 338.25064182 C-23.42185409 342.44769022 -23.42446653 346.64461596 -23.43837929 350.84164429 C-23.45097318 354.78813963 -23.44899891 358.73436728 -23.4359684 362.68085861 C-23.43360667 364.12600165 -23.43632283 365.57116363 -23.44459152 367.01628494 C-23.6157432 377.20440466 -23.6157432 377.20440466 -20.06005859 386.51757812 C-15.7165706 390.72095361 -11.21501381 390.64231271 -5.39093018 390.63783264 C-4.72189344 390.63868707 -4.05285671 390.63954149 -3.36354613 390.64042181 C-1.12335892 390.64206797 1.11675329 390.63656938 3.35693359 390.63110352 C4.96341449 390.63082143 6.56989552 390.63097979 8.17637634 390.63154602 C12.53758191 390.63183317 16.89876003 390.62594976 21.25995922 390.61897206 C25.81769357 390.6127248 30.37542853 390.61213364 34.9331665 390.61094666 C43.5639106 390.6078374 52.19464204 390.59962945 60.82538056 390.58959717 C70.65116131 390.57842347 80.47694266 390.57292241 90.30272818 390.56790173 C110.51513965 390.55744652 130.72753973 390.5398549 150.93994141 390.51757812 C150.94580765 389.87944183 150.95167389 389.24130554 150.9577179 388.58383179 C151.02173169 381.93238828 151.10617242 375.28142503 151.20239258 368.63037109 C151.23561376 366.14931578 151.26365438 363.6681854 151.28637695 361.18701172 C151.31997361 357.61718811 151.37229424 354.04805067 151.42822266 350.47851562 C151.43461258 349.37204681 151.4410025 348.265578 151.44758606 347.12557983 C151.5532548 341.57032326 151.6803013 337.25442218 154.93994141 332.51757812 C160.7456763 329.61471068 168.09789773 331.78660222 173.93994141 333.51757812 C183.48702947 334.30012633 191.50904008 331.7724959 198.89306641 325.61914062 C206.38979165 317.92212119 208.32999781 310.26362081 208.21337891 299.83789062 C207.52104333 291.43095861 202.99166766 285.16256921 196.93994141 279.51757812 C189.22089272 273.42277816 182.13899007 271.99681781 172.47900391 273.08789062 C169.78035884 273.47282753 169.78035884 273.47282753 166.68994141 274.64257812 C163.03868042 275.80434299 160.62868446 275.47391892 156.93994141 274.51757812 C154.07052028 272.25224566 153.10086528 271.00034976 151.93994141 267.51757812 C151.82480309 265.84606825 151.76357357 264.17058183 151.73461914 262.49536133 C151.71467392 261.47452957 151.6947287 260.45369781 151.67417908 259.40193176 C151.64911034 257.75181343 151.64911034 257.75181343 151.62353516 256.06835938 C151.60275406 254.94060593 151.58197296 253.81285248 151.56056213 252.65092468 C151.49511293 249.04403853 151.43620297 245.43707884 151.37744141 241.83007812 C151.3342518 239.38671111 151.29063737 236.94335156 151.24658203 234.5 C151.13863588 228.50593369 151.03952749 222.51181254 150.93994141 216.51757812 C139.05994141 216.51757812 127.17994141 216.51757812 114.93994141 216.51757812 C114.93994141 219.48757813 114.93994141 222.45757812 114.93994141 225.51757812 C113.14628827 239.69373139 107.74152238 251.95660752 96.93994141 261.51757812 C84.89305339 270.13411072 71.8811755 273.66284958 57.09619141 272.11523438 C43.29037233 269.74411301 31.65586774 263.44326087 23.12353516 252.10351562 C15.9933438 240.84531874 14.09902954 229.52681726 12.93994141 216.51757812 C8.90160351 216.41832793 4.86374268 216.3459325 0.82446289 216.29785156 C-0.54805883 216.27779822 -1.92049576 216.25054784 -3.29272461 216.21582031 C-5.27077903 216.16703261 -7.24946978 216.14668936 -9.22802734 216.12695312 C-10.41678467 216.10600586 -11.60554199 216.08505859 -12.83032227 216.06347656 C-16.82430545 216.62503138 -18.35030564 217.54265885 -21.06005859 220.51757812 Z M171.93994141 216.51757812 C171.93994141 228.39757812 171.93994141 240.27757812 171.93994141 252.51757812 C175.23994141 252.51757812 178.53994141 252.51757812 181.93994141 252.51757812 C195.33567206 254.16672855 208.01030996 259.12986804 216.74072266 269.69726562 C226.72517257 283.08113211 229.08241733 296.28433937 227.93994141 312.51757812 C225.88275605 325.62518483 218.16602212 337.0734415 207.54150391 344.86914062 C196.02433314 352.16680739 185.53319104 353.38480732 171.93994141 354.51757812 C171.93994141 366.39757812 171.93994141 378.27757812 171.93994141 390.51757812 C194.39271705 390.5627212 216.84545596 390.59956512 239.29826546 390.62120247 C249.72343699 390.63151599 260.14857832 390.64557781 270.57373047 390.66845703 C279.66005691 390.68838854 288.74636149 390.70129401 297.83270919 390.70575511 C302.6440558 390.70836289 307.45533985 390.71449395 312.26666641 390.72903824 C316.79574943 390.74261833 321.32474415 390.74679988 325.8538456 390.74379349 C327.51548937 390.74434346 329.17713612 390.74831836 330.83876228 390.75598907 C333.10950475 390.76595705 335.37991493 390.76354033 337.65066528 390.75808716 C338.92089602 390.75993074 340.19112675 390.76177433 341.49984932 390.76367378 C346.18325078 390.42863486 349.67380225 389.61261739 353.25244141 386.51757812 C356.19169025 383.03402394 356.07224943 380.78725297 356.09384155 376.28118896 C356.09822381 375.63442868 356.10260606 374.9876684 356.10712111 374.32130933 C356.12052429 372.14421634 356.12669136 369.96716385 356.1328125 367.79003906 C356.14071231 366.23299475 356.14898119 364.67595228 356.15759277 363.11891174 C356.18382816 357.99661003 356.19912249 352.87430008 356.21337891 347.75195312 C356.21873807 345.98947392 356.22411558 344.22699478 356.22951126 342.46451569 C356.25114272 335.1333881 356.26987961 327.80226273 356.28113365 320.4711113 C356.29737357 309.96066602 356.33054917 299.4505904 356.3875345 288.94028449 C356.42622547 281.55252568 356.44576537 274.16486577 356.45105422 266.7770083 C356.45470902 262.36349752 356.4667435 257.95038086 356.49915695 253.53697968 C356.52922276 249.38362634 356.53555501 245.23090589 356.52377319 241.07746696 C356.52355233 239.55448231 356.53186843 238.03146843 356.54942703 236.50858498 C357.00218459 227.54319849 357.00218459 227.54319849 353.5284729 219.6272583 C349.54350584 216.37946857 347.50751343 216.39771912 342.40087891 216.41992188 C340.44794922 216.42475586 340.44794922 216.42475586 338.45556641 216.4296875 C337.07535742 216.43804347 335.69514908 216.44650842 334.31494141 216.45507812 C332.92692215 216.46009311 331.53890118 216.46465602 330.15087891 216.46875 C326.74719009 216.48056836 323.34358702 216.49704379 319.93994141 216.51757812 C319.90465332 217.53537354 319.86936523 218.55316895 319.83300781 219.60180664 C319.21743626 235.10559591 315.29062478 248.7935549 303.75244141 259.83007812 C291.89712859 269.69937272 278.0858536 272.94292135 262.92822266 272.41210938 C250.96471713 271.02479973 238.78591097 264.81869077 230.76416016 255.84960938 C221.23062856 243.66220388 219.12319058 231.89981734 217.93994141 216.51757812 C202.75994141 216.51757812 187.57994141 216.51757812 171.93994141 216.51757812 Z " fill="#000000" transform="translate(43.06005859375,101.482421875)"/>
<path d="M0 0 C0.76154632 -0.00794881 1.52309265 -0.01589762 2.30771613 -0.02408731 C4.85619589 -0.04331653 7.40244979 -0.01971467 9.9508667 0.0038147 C11.77935107 -0.00104211 13.60783015 -0.00848171 15.43629456 -0.01831055 C20.40160382 -0.03712881 25.36612455 -0.01827589 30.33137226 0.00835371 C35.53085251 0.0309929 40.7302942 0.02276656 45.92980957 0.01885986 C54.66596341 0.01709359 63.401807 0.03925719 72.13787842 0.07608032 C82.22684119 0.11836354 92.31534858 0.12544693 102.40438199 0.1129564 C112.11725179 0.10154856 121.82996177 0.11288795 131.54280853 0.1353035 C135.67179073 0.14457377 139.80067485 0.14635255 143.92966461 0.14213181 C148.79878958 0.13835196 153.66745421 0.15468067 158.53647423 0.18625259 C160.31939222 0.1947067 162.10235706 0.19646069 163.88528633 0.19087219 C176.32017455 0.15782189 185.24573914 1.19864719 194.63739014 9.95547485 C201.65930325 17.26399667 202.67352416 24.53805949 202.69598389 34.22109985 C202.70264069 35.22176987 202.70929749 36.22243988 202.71615601 37.25343323 C202.72625187 39.36218433 202.73097398 41.47096719 202.73065186 43.57974243 C202.73503671 46.80382644 202.77142141 50.02655355 202.80926514 53.25039673 C202.81513159 55.30312644 202.81910213 57.35586262 202.82098389 59.40859985 C202.83535492 60.37016495 202.84972595 61.33173004 202.86453247 62.32243347 C202.83494808 66.65538443 202.77414892 69.07769096 200.45623779 72.83218384 C197.18402237 75.82352077 194.83851452 76.08177059 190.39910889 76.04141235 C187.22870072 75.58589394 185.54080619 73.99528703 183.36004639 71.7484436 C181.75276042 68.53387167 182.18139971 65.02003168 182.14910889 61.48672485 C182.12102491 59.79335607 182.09236035 58.09999683 182.06317139 56.40664673 C182.02202783 53.73843815 181.98514021 51.07040484 181.9586792 48.40200806 C181.93091783 45.82570513 181.8850314 43.2502116 181.83660889 40.67422485 C181.83172958 39.49102409 181.83172958 39.49102409 181.82675171 38.28392029 C181.71228211 33.075345 181.10053211 29.24425708 178.36004639 24.7484436 C173.5081312 22.19927568 169.87218877 21.37108101 164.33015442 21.34971619 C163.32275441 21.33974595 163.32275441 21.33974595 162.29500288 21.32957429 C160.06400339 21.31105 157.83354521 21.31354228 155.60247803 21.31607056 C153.99554697 21.3070469 152.38862279 21.29671819 150.78170776 21.28518677 C146.43306911 21.25766151 142.08456122 21.24833834 137.73584676 21.2423327 C133.18608392 21.23293737 128.63641831 21.20673304 124.0867157 21.18232727 C115.47734649 21.13869046 106.86799619 21.11012618 98.25855011 21.08700389 C88.45440703 21.05993711 78.65036189 21.0160265 68.8462888 20.97071517 C48.6842469 20.87790918 28.52221448 20.80843329 8.36004639 20.7484436 C8.36004639 32.6284436 8.36004639 44.5084436 8.36004639 56.7484436 C11.99004639 56.7484436 15.62004639 56.7484436 19.36004639 56.7484436 C33.90082536 58.58212591 45.92661833 65.63649953 55.17645264 76.9750061 C64.06891427 89.58937524 66.66821287 103.60958697 64.36004639 118.7484436 C61.46257411 131.53511476 54.52366439 143.19810842 43.60223389 150.6234436 C32.83850503 157.230336 23.0137875 159.68041274 10.36004639 159.7484436 C9.70004639 159.4184436 9.04004639 159.0884436 8.36004639 158.7484436 C8.36004639 170.6284436 8.36004639 182.5084436 8.36004639 194.7484436 C11.97199951 194.71363892 15.58395264 194.67883423 19.30535889 194.64297485 C22.81023366 194.6195671 26.31509967 194.60135739 29.82000732 194.58364868 C32.25266427 194.56857826 34.68529413 194.54811838 37.11785889 194.52212524 C40.61792699 194.4856662 44.11763529 194.46869941 47.61785889 194.45547485 C49.24475143 194.43224907 49.24475143 194.43224907 50.9045105 194.40855408 C56.44496442 194.407324 60.64145017 194.47997846 65.36004639 197.7484436 C67.7449465 201.13346312 68.4029054 202.9769813 68.17254639 207.1234436 C67.61663609 209.60365876 66.96541346 212.06388668 66.23504639 214.4984436 C64.21087906 222.50240295 65.76831722 230.24543664 69.71551514 237.3890686 C73.71826167 243.13172633 79.2653182 248.2718631 86.07098389 250.34609985 C96.86252155 252.24290596 105.59500759 250.5555447 114.67254639 244.5609436 C120.63623456 238.31987458 124.32622401 230.44676481 124.61004639 221.7484436 C124.54612092 218.9676859 124.17115889 217.11094831 123.36004639 214.3734436 C122.08644117 209.75662468 121.55617941 205.49929746 122.36004639 200.7484436 C124.88680677 197.40219336 126.39938181 196.06866513 130.36004639 194.7484436 C131.82194324 194.65897505 133.28750444 194.62333951 134.75213623 194.62246704 C135.63670502 194.61866028 136.5212738 194.61485352 137.43264771 194.6109314 C138.38579865 194.60990417 139.33894958 194.60887695 140.32098389 194.6078186 C142.33922437 194.58949371 144.35745386 194.5699237 146.37567139 194.54922485 C149.55782657 194.52023363 152.73927388 194.49844296 155.92156982 194.49795532 C158.99284692 194.49462215 162.06249031 194.46008375 165.13348389 194.4203186 C166.5571376 194.43092316 166.5571376 194.43092316 168.009552 194.44174194 C172.51080187 194.35880102 174.70817691 194.22081879 178.43670654 191.51895142 C181.82170277 186.64297564 181.48338282 181.97886118 181.46551514 176.2171936 C181.47896416 174.75233506 181.49398603 173.28749026 181.51043701 171.82266235 C181.53329637 169.53131921 181.54750902 167.24154674 181.53509521 164.95010376 C181.52626555 162.72550453 181.55518193 160.50397441 181.59051514 158.2796936 C181.57216866 157.25917908 181.57216866 157.25917908 181.55345154 156.2180481 C181.62350414 153.45635645 181.8588165 151.34244246 183.67221069 149.19342041 C186.40233099 146.85319108 188.68910131 145.04696558 192.36004639 145.1234436 C192.97879639 145.11055298 193.59754639 145.09766235 194.23504639 145.0843811 C197.64862004 146.15112287 200.16498491 147.97561634 202.36004639 150.7484436 C203.24145012 153.83345118 203.20226052 156.80968158 203.15692139 160.00234985 C203.16266174 160.89904892 203.1684021 161.79574799 203.17431641 162.71961975 C203.17839286 164.61670456 203.1673658 166.51387389 203.14227295 168.41079712 C203.11040602 171.27857902 203.14183119 174.14061234 203.18035889 177.00820923 C203.20699165 188.64380907 202.40161412 197.66868531 194.55145264 206.86782837 C186.34507014 214.81724542 177.12104348 216.25562974 166.10614014 216.1000061 C164.64909852 216.06660124 163.19206725 216.03274167 161.73504639 215.9984436 C160.2389767 215.97833601 158.74288075 215.96009281 157.24676514 215.9437561 C153.617304 215.90012475 149.9888482 215.83133663 146.36004639 215.7484436 C146.37309814 216.54508423 146.3861499 217.34172485 146.39959717 218.1625061 C146.5458095 233.42428858 142.46084338 247.37526686 131.67645264 258.65078735 C119.65074759 269.54084403 106.72278694 273.76015936 90.73504639 273.1312561 C77.99857509 272.25077831 66.58940879 266.44584542 57.36004639 257.7484436 C47.34797142 245.67887103 43.26009191 233.38132417 43.36004639 217.7484436 C43.69004639 217.0884436 44.02004639 216.4284436 44.36004639 215.7484436 C43.73221756 215.75732605 43.10438873 215.7662085 42.45753479 215.77536011 C35.92016712 215.86388815 29.38296987 215.92420073 22.84515381 215.96817017 C20.40563032 215.98827925 17.96615499 216.01557044 15.52679443 216.05020142 C12.01926791 216.0987485 8.51237895 216.12141992 5.00457764 216.1390686 C3.91482132 216.15971375 2.825065 216.18035889 1.70228577 216.20162964 C-5.881 216.20387431 -5.881 216.20387431 -9.80523682 213.84902954 C-12.93183721 210.26935292 -12.78272952 207.96548295 -12.83282471 203.26675415 C-12.8410022 202.60149719 -12.84917969 201.93624023 -12.85760498 201.25082397 C-12.88245056 199.04561259 -12.89897303 196.84046556 -12.91339111 194.63516235 C-12.91871479 193.88199045 -12.92403847 193.12881855 -12.92952347 192.35282326 C-12.95625194 188.36597333 -12.9756274 184.37915468 -12.99005127 180.39224243 C-13.00669526 176.27610181 -13.05147053 172.16076249 -13.10242271 168.04492474 C-13.13609482 164.87844433 -13.14762856 161.7121541 -13.15327835 158.54551125 C-13.15999146 157.02843924 -13.17521537 155.51137978 -13.19916916 153.99448204 C-13.23082556 151.86843146 -13.2308586 149.74454146 -13.22344971 147.61831665 C-13.23153656 146.40967453 -13.23962341 145.20103241 -13.24795532 143.95576477 C-12.46306385 139.81531747 -10.88196792 138.35326833 -7.63995361 135.7484436 C-2.90165776 134.20124496 0.50730844 134.95653156 5.17254639 136.2484436 C14.46046255 138.7615082 22.01911845 137.48031618 30.36004639 132.7484436 C37.27255082 128.09579639 41.46213688 120.9796589 43.14129639 112.8421936 C44.10673134 103.60160191 41.31989131 95.32360848 35.73504639 87.9984436 C30.87942167 82.67212058 23.43307381 79.1516602 16.24676514 78.58047485 C12.51493787 78.54733252 9.53969527 78.69618211 5.92254639 79.7484436 C2.87540623 80.60378119 0.36863372 81.06329812 -2.76495361 81.2484436 C-3.57190674 81.3000061 -4.37885986 81.3515686 -5.21026611 81.4046936 C-8.13339037 80.61516808 -9.69269593 79.36301173 -11.56784058 77.00076294 C-14.0876315 71.70712913 -13.34952118 65.26216653 -13.30401611 59.4984436 C-13.30738793 57.99681201 -13.3122436 56.49518309 -13.31851196 54.99356079 C-13.32586624 51.85299587 -13.31522577 48.71314408 -13.29180908 45.57266235 C-13.26332061 41.55741612 -13.27973258 37.54384099 -13.3096714 33.52865601 C-13.32778444 30.42979458 -13.32196836 27.33132599 -13.30903244 24.23245239 C-13.30570941 22.75255126 -13.3097466 21.27261386 -13.32143021 19.79275513 C-13.33420713 17.71973945 -13.31467527 15.64938704 -13.28692627 13.5765686 C-13.2829483 12.39997681 -13.27897034 11.22338501 -13.27487183 10.01113892 C-11.76970644 2.27644812 -7.41305097 -0.154663 0 0 Z " fill="#000000" transform="translate(309.63995361328125,-0.748443603515625)"/>
<path d="M0 0 C4.37758112 2.34513274 4.37758112 2.34513274 6 5 C6.79658808 8.49581819 6.75872644 11.49951211 6 15 C3.48577015 18.73325038 1.86635918 19.74796824 -2.4375 21 C-6.53094236 21 -8.59065251 20.22004022 -12 18 C-14.82827437 13.75758844 -14.8876122 9.97696843 -14 5 C-10.90973636 -0.13529105 -5.51511126 -1.31312173 0 0 Z " fill="#000000" transform="translate(506,100)"/>
</svg>
