<?xml version="1.0" encoding="UTF-8"?>
<svg version="1.1" xmlns="http://www.w3.org/2000/svg" width="512" height="512">
<path d="M0 0 C1.37227753 -0.01441132 1.37227753 -0.01441132 2.77227783 -0.02911377 C3.75460388 -0.03336365 4.73692993 -0.03761353 5.74902344 -0.04199219 C7.27689484 -0.0505423 7.27689484 -0.0505423 8.83563232 -0.05926514 C10.99083419 -0.06870602 13.14605044 -0.0752455 15.30126953 -0.07910156 C18.58229075 -0.08879009 21.86268086 -0.11981558 25.14355469 -0.15136719 C27.24120723 -0.15789943 29.33886424 -0.16314903 31.43652344 -0.16699219 C32.41075256 -0.17933899 33.38498169 -0.19168579 34.38873291 -0.20440674 C42.15131263 -0.17928839 48.70448659 1.1001563 54.67089844 6.47363281 C55.30640625 7.02664062 55.94191406 7.57964844 56.59667969 8.14941406 C61.65767932 13.92860433 61.78421233 19.32558211 61.71916199 26.63937378 C61.72172526 27.69397328 61.72428854 28.74857279 61.72692949 29.83512986 C61.73187018 33.36826953 61.71536923 36.90098173 61.69897461 40.43408203 C61.6981284 42.96695445 61.69860336 45.4998276 61.70030212 48.03269958 C61.70098524 53.4854768 61.69247711 58.9381164 61.67558861 64.39086533 C61.65118681 72.27455156 61.64339214 80.15818575 61.63962463 88.04190566 C61.633062 100.8333052 61.61310594 113.62464728 61.5847168 126.41601562 C61.55717136 138.84016635 61.53594015 151.26430146 61.52319336 163.68847656 C61.52240519 164.45455809 61.52161702 165.22063961 61.52080496 166.00993572 C61.51688979 169.85321813 61.51309868 173.69650065 61.50936925 177.53978324 C61.47827919 209.41360857 61.4252252 241.28736175 61.35839844 273.16113281 C62.45539063 273.12632812 63.55238281 273.09152344 64.68261719 273.05566406 C66.13702889 273.02751416 67.59145724 273.00021529 69.04589844 272.97363281 C70.12774414 272.93592773 70.12774414 272.93592773 71.23144531 272.89746094 C75.81986718 272.83460584 78.72774318 273.2940953 82.35839844 276.16113281 C83.9042672 279.25287033 83.65199365 281.75542834 83.35839844 285.16113281 C81.84526062 287.35623503 81.84526062 287.35623503 79.35839844 289.16113281 C76.52740923 289.55310906 74.08605129 289.69885829 71.25610352 289.66449738 C70.42876017 289.67031114 69.60141682 289.6761249 68.74900246 289.68211484 C65.95835329 289.69678945 63.16857341 289.68279502 60.37792969 289.66906738 C58.36442106 289.67367335 56.35091579 289.68002421 54.3374176 289.68797636 C48.79011857 289.70473458 43.24309341 289.69639385 37.69579315 289.68403149 C31.71888842 289.67500982 25.74203197 289.68893636 19.76513672 289.69995117 C8.72839775 289.71674098 -2.30826552 289.71524216 -13.34500504 289.7043053 C-23.54007136 289.69425183 -33.73510552 289.69161217 -43.93017578 289.69639587 C-44.60585755 289.69670141 -45.28153932 289.69700695 -45.9776963 289.69732175 C-48.72035638 289.69856706 -51.46301645 289.69984066 -54.2056765 289.70116081 C-79.94556181 289.7134029 -105.68539124 289.70229332 -131.42526793 289.68077322 C-154.30470075 289.66179011 -177.18404452 289.66348859 -200.06347656 289.68261719 C-225.75561388 289.70402546 -251.4477018 289.71253478 -277.1398468 289.70016813 C-279.87757364 289.69888522 -282.61530049 289.69763386 -285.35302734 289.69639587 C-286.02714908 289.69607956 -286.70127083 289.69576326 -287.3958205 289.69543736 C-297.58567121 289.69088322 -307.77548626 289.69621646 -317.96533203 289.70631409 C-329.54908839 289.71773562 -341.13275999 289.71453878 -352.71650696 289.69319111 C-358.63086927 289.6826521 -364.5450505 289.67860735 -370.45941162 289.69178772 C-375.86775793 289.70365846 -381.27575436 289.69723723 -386.68406868 289.67587751 C-388.64631871 289.6713888 -390.60859797 289.67372812 -392.57082939 289.68338066 C-395.22741553 289.69545198 -397.88278527 289.68316482 -400.53930664 289.66449738 C-401.69621034 289.67854437 -401.69621034 289.67854437 -402.87648582 289.69287515 C-406.33167935 289.64396781 -408.2944464 289.41537736 -411.116745 287.34842253 C-413.35273265 284.14106984 -413.18634582 281.97434264 -412.64160156 278.16113281 C-410.77451652 275.79615842 -409.32098725 274.50082566 -406.64160156 273.16113281 C-403.92400048 273.0893146 -401.23300769 273.06813775 -398.51660156 273.09863281 C-397.7625 273.10314453 -397.00839844 273.10765625 -396.23144531 273.11230469 C-394.3681303 273.12409782 -392.50485601 273.14203339 -390.64160156 273.16113281 C-390.65048401 272.22676392 -390.65936646 271.29239502 -390.66851807 270.32971191 C-390.74978142 261.50258632 -390.80965187 252.67553713 -390.84885025 243.84812164 C-390.86968045 239.3103724 -390.89791403 234.77292635 -390.94335938 230.23535156 C-390.98698091 225.85219869 -391.01077299 221.46933655 -391.02111053 217.08598328 C-391.02847276 215.4178968 -391.04284937 213.74982533 -391.06452179 212.0818634 C-391.27874195 194.90396604 -391.27874195 194.90396604 -385.03613281 187.17285156 C-377.49180792 180.85797221 -369.62952556 179.70002673 -360.01660156 179.76269531 C-359.02966309 179.75982513 -358.04272461 179.75695496 -357.02587891 179.7539978 C-354.95181703 179.75196819 -352.87773553 179.75742032 -350.80371094 179.77001953 C-347.65027588 179.78608861 -344.49812232 179.7701327 -341.34472656 179.75097656 C-339.3186821 179.75295919 -337.29263843 179.75680327 -335.26660156 179.76269531 C-334.33509277 179.75662262 -333.40358398 179.75054993 -332.44384766 179.74429321 C-325.18340854 179.82133118 -318.24236821 180.91130409 -312.32910156 185.41113281 C-306.11277739 191.77202266 -304.513222 197.67395054 -304.52807617 206.40820312 C-304.52793015 207.13055145 -304.52778412 207.85289978 -304.52763367 208.59713745 C-304.52832873 210.97787509 -304.53610206 213.35853389 -304.54394531 215.73925781 C-304.54581094 217.39263873 -304.54723416 219.04602019 -304.54823303 220.69940186 C-304.55204683 225.04607679 -304.56186741 229.39271818 -304.57293701 233.73937988 C-304.58497646 238.95734972 -304.58955879 244.17533079 -304.59539032 249.39331055 C-304.60507977 257.31594128 -304.62424428 265.23849845 -304.64160156 273.16113281 C-292.76160156 273.16113281 -280.88160156 273.16113281 -268.64160156 273.16113281 C-268.65048401 270.63569824 -268.65936646 268.11026367 -268.66851807 265.50830078 C-268.75024084 241.72952741 -268.80977732 217.95077254 -268.84885025 194.17189026 C-268.86947296 181.94640559 -268.89758815 169.72102399 -268.94335938 157.49560547 C-268.98323586 146.83957983 -269.00903649 136.18362885 -269.01795554 125.52753067 C-269.02316887 119.88550831 -269.03541634 114.2436995 -269.06452179 108.60174561 C-269.09170351 103.28958007 -269.10004088 97.97771576 -269.09403229 92.66548729 C-269.09513128 90.71763662 -269.10306861 88.76977571 -269.11842346 86.82198524 C-269.13839455 84.15756741 -269.13351495 81.49427925 -269.12261963 78.82983398 C-269.13427099 78.06327421 -269.14592236 77.29671444 -269.1579268 76.50692558 C-269.08603768 69.98021601 -266.98650473 64.83702629 -262.67675781 59.91894531 C-261.70029297 59.11070312 -261.70029297 59.11070312 -260.70410156 58.28613281 C-260.05570313 57.73183594 -259.40730469 57.17753906 -258.73925781 56.60644531 C-254.77380935 53.87419963 -251.21184714 52.91165476 -246.42749023 52.87060547 C-244.90517036 52.85146591 -244.90517036 52.85146591 -243.35209656 52.8319397 C-241.72229607 52.82860123 -241.72229607 52.82860123 -240.05957031 52.82519531 C-238.9314241 52.81853851 -237.80327789 52.81188171 -236.64094543 52.80502319 C-234.2563337 52.7949083 -231.87169372 52.79020581 -229.48706055 52.79052734 C-225.85254851 52.78616098 -222.21925772 52.74984573 -218.58496094 52.71191406 C-216.26400153 52.70604423 -213.94303638 52.70207595 -211.62207031 52.70019531 C-210.54160934 52.68582428 -209.46114838 52.67145325 -208.34794617 52.65664673 C-200.32118322 52.70486405 -195.10057468 54.3310639 -188.89160156 59.41113281 C-183.88881027 65.5256555 -182.04144459 70.99151747 -182.1605835 78.82983398 C-182.1571658 79.66563051 -182.1537481 80.50142704 -182.15022683 81.36255074 C-182.14367521 84.1434245 -182.16557849 86.92331779 -182.1875 89.70410156 C-182.18862907 91.70525591 -182.18799346 93.70641192 -182.18572998 95.70756531 C-182.18458423 101.12648623 -182.20807136 106.54505164 -182.23602581 111.96389008 C-182.26106241 117.63199553 -182.26338325 123.3001095 -182.26812744 128.96826172 C-182.28055055 139.69557023 -182.31336328 150.42271532 -182.3535254 161.14995193 C-182.3982637 173.36511777 -182.42023535 185.58029148 -182.44030714 197.79551888 C-182.4820964 222.9174838 -182.55324315 248.03929224 -182.64160156 273.16113281 C-170.76160156 273.16113281 -158.88160156 273.16113281 -146.64160156 273.16113281 C-146.66254883 268.9066626 -146.68349609 264.65219238 -146.70507812 260.26879883 C-146.77137679 246.20721962 -146.81575247 232.14563424 -146.84885025 218.08393955 C-146.86945068 209.55888956 -146.89752291 201.03398794 -146.94335938 192.5090332 C-146.98330451 185.07622406 -147.00905268 177.6435224 -147.01795554 170.2106089 C-147.02315736 166.27711198 -147.03533041 162.34392249 -147.06452179 158.41052437 C-147.09181258 154.70293817 -147.10001928 150.99578402 -147.09403229 147.28810692 C-147.09564544 145.28948816 -147.11709639 143.2909157 -147.13928223 141.29241943 C-147.10135795 132.96647826 -146.14370898 126.33163449 -140.67675781 119.82128906 C-140.02578125 119.2940625 -139.37480469 118.76683594 -138.70410156 118.22363281 C-138.05570312 117.67835938 -137.40730469 117.13308594 -136.73925781 116.57128906 C-132.76897773 113.90225534 -129.21733507 112.91210151 -124.45922852 112.85473633 C-123.45080399 112.83874893 -122.44237946 112.82276154 -121.40339661 112.80628967 C-119.78300728 112.79824562 -119.78300728 112.79824562 -118.12988281 112.79003906 C-117.00647995 112.78101059 -115.88307709 112.77198212 -114.72563171 112.76268005 C-112.34942281 112.74818538 -109.97317406 112.73929277 -107.59692383 112.7355957 C-103.98416726 112.72373155 -100.37313691 112.67456196 -96.76074219 112.62402344 C-94.44629735 112.6145548 -92.13184208 112.60732188 -89.81738281 112.60253906 C-88.74724442 112.58300674 -87.67710602 112.56347443 -86.57453918 112.54335022 C-79.23864585 112.58688293 -73.80275682 114.1033245 -67.64160156 118.16113281 C-65.38769531 120.51269531 -65.38769531 120.51269531 -64.07910156 122.78613281 C-63.6240625 123.54152344 -63.16902344 124.29691406 -62.70019531 125.07519531 C-60.78521501 128.84862512 -60.51768771 131.77542663 -60.52134705 135.95072937 C-60.51928505 137.7617514 -60.51928505 137.7617514 -60.5171814 139.60935974 C-60.52072051 140.94912744 -60.52435532 142.2888949 -60.52807617 143.62866211 C-60.52835821 145.03795367 -60.52819998 146.44724539 -60.52763367 147.85653687 C-60.52734635 151.68476236 -60.53323252 155.51295662 -60.54020762 159.34117484 C-60.54645205 163.3410398 -60.54704583 167.34090545 -60.54823303 171.34077454 C-60.55134313 178.91615695 -60.5595522 186.49152496 -60.56958252 194.06690103 C-60.58075362 202.69074649 -60.58625663 211.31459264 -60.59127796 219.93844354 C-60.60173507 237.67934979 -60.62007657 255.4202363 -60.64160156 273.16113281 C-48.76160156 273.16113281 -36.88160156 273.16113281 -24.64160156 273.16113281 C-24.6482634 270.01151505 -24.65492523 266.86189728 -24.66178894 263.61683655 C-24.72151154 234.72076971 -24.76628515 205.82471966 -24.79479755 176.92860639 C-24.79854958 173.13982276 -24.80243256 169.35103928 -24.80639648 165.56225586 C-24.80718342 164.80799112 -24.80797035 164.05372637 -24.80878112 163.27660512 C-24.82182786 151.07062745 -24.84547766 138.86469225 -24.87305995 126.65873975 C-24.90113454 114.13025146 -24.91778216 101.60178538 -24.92386705 89.07326692 C-24.92797923 81.34520376 -24.9409578 73.61726067 -24.96535096 65.88923448 C-24.98311357 59.95903405 -24.98496199 54.02889493 -24.98092461 48.09866714 C-24.98174943 45.66909102 -24.98770999 43.23951033 -24.99921799 40.80996132 C-25.01417469 37.48923523 -25.01054318 34.16902013 -25.00236511 30.84828186 C-25.01110364 29.89008751 -25.01984216 28.93189317 -25.02884549 27.94466263 C-24.97879275 20.40954536 -23.63853175 14.18505566 -19.45410156 7.84863281 C-13.9397454 2.57935915 -7.60149942 0.06472205 0 0 Z M-7.64160156 19.16113281 C-8.5682553 21.94109401 -8.76607947 23.58293368 -8.76464939 26.45023632 C-8.76664044 27.33054176 -8.76863149 28.21084719 -8.77068287 29.11782855 C-8.76777003 30.08571805 -8.76485719 31.05360754 -8.76185608 32.05082703 C-8.7627105 33.07836194 -8.76356493 34.10589686 -8.76444525 35.1645692 C-8.76609857 38.62397181 -8.76058103 42.08332643 -8.75512695 45.54272461 C-8.75484502 48.01604206 -8.75500293 50.4893596 -8.75556946 52.962677 C-8.75579753 58.29595754 -8.7529524 63.62922301 -8.74733162 68.96249962 C-8.73921016 76.67355388 -8.73660073 84.38460223 -8.73534363 92.09566031 C-8.73315413 104.60585046 -8.7264968 117.11603409 -8.71704102 129.6262207 C-8.70786427 141.7798662 -8.70078472 153.93350994 -8.6965332 166.0871582 C-8.69627048 166.83610592 -8.69600776 167.58505364 -8.69573707 168.35669675 C-8.69443205 172.11388672 -8.69316834 175.8710767 -8.69192517 179.62826669 C-8.68155573 210.8058945 -8.66311912 241.98351021 -8.64160156 273.16113281 C9.17839844 273.16113281 26.99839844 273.16113281 45.35839844 273.16113281 C45.4685816 240.99849815 45.56091912 208.8360463 45.61372508 176.67327975 C45.61997878 172.87805205 45.62645038 169.08282475 45.63305664 165.28759766 C45.63502397 164.15423321 45.63502397 164.15423321 45.63703104 162.99797252 C45.6588005 150.75624471 45.69823045 138.51463404 45.74416242 126.27297577 C45.79088431 113.71626597 45.81868477 101.15961761 45.82884091 88.60282445 C45.83570898 80.85162269 45.85741751 73.10075201 45.89798077 65.34965214 C45.92748115 59.41077923 45.93068337 53.47207717 45.92393684 47.53312874 C45.92531652 45.09337636 45.93531671 42.65361187 45.95442581 40.21393394 C45.9791832 36.891158 45.97336583 33.56981613 45.95967102 30.24700928 C45.98151733 28.78787145 45.98151733 28.78787145 46.00380498 27.29925609 C46.00582611 21.88830062 46.00582611 21.88830062 42.95832348 17.56209087 C40.32643876 16.14391148 38.87718376 15.66008929 35.92285156 15.65942383 C35.07847534 15.65004288 34.23409912 15.64066193 33.36413574 15.6309967 C32.46505493 15.64223068 31.56597412 15.65346466 30.63964844 15.66503906 C29.2364032 15.66285622 29.2364032 15.66285622 27.80480957 15.66062927 C25.83126708 15.66228576 23.85771133 15.67381895 21.88427734 15.69458008 C18.86858074 15.72353505 15.85464307 15.71518352 12.83886719 15.70214844 C10.91828575 15.7083863 8.99770985 15.71677762 7.07714844 15.72753906 C6.17806763 15.72460342 5.27898682 15.72166779 4.35266113 15.71864319 C-0.40591935 15.79012633 -3.85137562 15.94218593 -7.64160156 19.16113281 Z M-252.64160156 73.16113281 C-253.02592652 75.98440587 -253.16549409 78.41423231 -253.12261963 81.23492432 C-253.12603733 82.05505249 -253.12945503 82.87518066 -253.13297629 83.7201612 C-253.13957206 86.47199798 -253.11755147 89.22286226 -253.09570312 91.97460938 C-253.09457501 93.94561744 -253.0952078 95.91662719 -253.09747314 97.88763428 C-253.09862263 103.24274526 -253.0750752 108.59749918 -253.04717731 113.95252705 C-253.02220282 119.5472515 -253.01982478 125.14198378 -253.01507568 130.73675537 C-253.00263429 141.33315868 -252.96979687 151.92939727 -252.92967772 162.52572799 C-252.88499626 174.58844588 -252.86298208 186.65117157 -252.84289598 198.71395159 C-252.80106529 223.52979107 -252.7276983 248.3454047 -252.64160156 273.16113281 C-234.82160156 273.16113281 -217.00160156 273.16113281 -198.64160156 273.16113281 C-198.55135059 247.30110508 -198.47764825 221.4412046 -198.43435287 195.58105946 C-198.41371688 183.57408325 -198.38557635 171.56721174 -198.33984375 159.56030273 C-198.30000788 149.09657891 -198.2741763 138.63293091 -198.26524758 128.16913337 C-198.26002736 122.6272507 -198.24773619 117.08558497 -198.21868134 111.54377174 C-198.1915637 106.32928638 -198.18314923 101.11510765 -198.18917084 95.90055847 C-198.18806897 93.9853111 -198.18009345 92.07005364 -198.16477966 90.15486717 C-198.1449088 87.54193815 -198.14965155 84.93017026 -198.1605835 82.31721497 C-198.14310645 81.17761321 -198.14310645 81.17761321 -198.12527633 80.0149892 C-198.16679332 76.34949412 -198.54523633 74.31238609 -200.53413773 71.1906395 C-202.9829264 68.83243391 -203.91074594 68.53406862 -207.25488281 68.5300293 C-208.16262451 68.51749619 -209.07036621 68.50496307 -210.00561523 68.49205017 C-210.97861572 68.50530838 -211.95161621 68.51856659 -212.95410156 68.53222656 C-213.95997314 68.52981461 -214.96584473 68.52740265 -216.00219727 68.5249176 C-218.12715602 68.52589634 -220.25214018 68.53929628 -222.37695312 68.56420898 C-225.63011261 68.59851167 -228.88055539 68.58487034 -232.13378906 68.56542969 C-234.1989048 68.57232822 -236.26401352 68.58200067 -238.32910156 68.59472656 C-239.30210205 68.58976669 -240.27510254 68.58480682 -241.27758789 68.57969666 C-242.18532959 68.59553299 -243.09307129 68.61136932 -244.02832031 68.62768555 C-244.82455811 68.63388412 -245.6207959 68.6400827 -246.44116211 68.64646912 C-249.61729685 69.38933947 -250.65929423 70.57140855 -252.64160156 73.16113281 Z M-130.64160156 134.16113281 C-131.22515481 136.98316763 -131.22515481 136.98316763 -131.12261963 140.03938293 C-131.12811829 141.21582367 -131.13361694 142.3922644 -131.13928223 143.60435486 C-131.12490112 144.88613113 -131.11052002 146.16790741 -131.09570312 147.48852539 C-131.09457423 148.85870328 -131.09520934 150.22888358 -131.09747314 151.59906006 C-131.09861959 155.31166832 -131.07512207 159.02375839 -131.04717731 162.73624635 C-131.02215185 166.61862696 -131.01982077 170.5010198 -131.01507568 174.38346863 C-131.00264923 181.73222975 -130.96983224 189.08075251 -130.92967772 196.42940873 C-130.88494962 204.79692549 -130.86297038 213.1644537 -130.84289598 221.53206027 C-130.80109914 238.7419126 -130.7277511 255.95143666 -130.64160156 273.16113281 C-112.82160156 273.16113281 -95.00160156 273.16113281 -76.64160156 273.16113281 C-76.55133791 254.9764777 -76.47764105 236.79200371 -76.43435287 218.60718155 C-76.41371998 210.16382075 -76.38558561 201.72060893 -76.33984375 193.27734375 C-76.2999981 185.91892834 -76.27417404 178.56062081 -76.26524758 171.20210052 C-76.26002893 167.30509192 -76.2477485 163.40839199 -76.21868134 159.51148224 C-76.19154785 155.8441283 -76.1831522 152.1772104 -76.18917084 148.50976562 C-76.18754426 146.52091922 -76.16601062 144.53212039 -76.1439209 142.543396 C-76.14941956 141.35991577 -76.15491821 140.17643555 -76.1605835 138.95709229 C-76.15505274 137.41401083 -76.15505274 137.41401083 -76.14941025 135.83975601 C-76.77182246 132.45243947 -77.97680828 131.27267034 -80.64160156 129.16113281 C-82.85699906 128.55781293 -82.85699906 128.55781293 -85.25488281 128.62768555 C-86.61649536 128.60393105 -86.61649536 128.60393105 -88.00561523 128.57969666 C-88.97861572 128.58465652 -89.95161621 128.58961639 -90.95410156 128.59472656 C-92.46290894 128.5854287 -92.46290894 128.5854287 -94.00219727 128.57594299 C-96.12710604 128.56884472 -98.25207043 128.57201894 -100.37695312 128.5847168 C-103.63027096 128.59858451 -106.88071411 128.56450838 -110.13378906 128.52636719 C-112.19889393 128.52541602 -114.26400241 128.52727471 -116.32910156 128.53222656 C-117.30210205 128.51896835 -118.27510254 128.50571014 -119.27758789 128.49205017 C-120.18532959 128.50458328 -121.09307129 128.51711639 -122.02832031 128.5300293 C-122.82455811 128.53099106 -123.6207959 128.53195282 -124.44116211 128.53294373 C-127.74531553 129.4762249 -128.76045742 131.35002778 -130.64160156 134.16113281 Z M-374.64160156 200.16113281 C-375.36588235 203.50195199 -375.36588235 203.50195199 -375.20922852 207.31640625 C-375.20995865 208.02900101 -375.21068878 208.74159576 -375.21144104 209.4757843 C-375.20796501 211.82480724 -375.1691082 214.17183256 -375.12988281 216.52050781 C-375.12055462 218.15145789 -375.11343853 219.782422 -375.10844421 221.41339111 C-375.08937459 225.7012618 -375.04027502 229.98828249 -374.98492432 234.27581787 C-374.92472619 239.42269831 -374.90181532 244.56986334 -374.87265778 249.71699524 C-374.82420891 257.5322985 -374.72839642 265.34573766 -374.64160156 273.16113281 C-356.82160156 273.16113281 -339.00160156 273.16113281 -320.64160156 273.16113281 C-320.58343036 260.63965745 -320.58343036 260.63965745 -320.54394531 248.11816406 C-320.53198942 243.0111882 -320.51784489 237.90428405 -320.49072266 232.79736328 C-320.46899314 228.68008895 -320.45703269 224.56289152 -320.45184708 220.44556427 C-320.44815152 218.87468505 -320.44093504 217.30381004 -320.43014145 215.73296356 C-320.41562498 213.53282065 -320.41362367 211.33299559 -320.41455078 209.1328125 C-320.40788895 207.25417511 -320.40788895 207.25417511 -320.40109253 205.33758545 C-320.63292912 202.27567161 -320.84303769 200.61965126 -322.64160156 198.16113281 C-325.42326667 196.31379835 -327.66196275 195.90462305 -330.96362305 195.87060547 C-331.8080748 195.85784576 -332.65252655 195.84508606 -333.52256775 195.8319397 C-334.42680984 195.82971405 -335.33105194 195.8274884 -336.26269531 195.82519531 C-337.19960709 195.81853851 -338.13651886 195.81188171 -339.1018219 195.80502319 C-341.08128905 195.79490826 -343.06079023 195.79020581 -345.0402832 195.79052734 C-348.06486259 195.7861534 -351.08798331 195.74981961 -354.11230469 195.71191406 C-356.03742991 195.70604579 -357.96256206 195.70207647 -359.88769531 195.70019531 C-360.78991318 195.68582428 -361.69213104 195.67145325 -362.62168884 195.65664673 C-363.46929276 195.66279999 -364.31689667 195.66895325 -365.19018555 195.67529297 C-366.3012693 195.67101791 -366.3012693 195.67101791 -367.43479919 195.66665649 C-370.74289142 196.40789789 -372.33534752 197.69183896 -374.64160156 200.16113281 Z " fill="#000000" transform="translate(420.6416015625,167.8388671875)"/>
<path d="M0 0 C3.48985623 6.97971245 0.95523524 16.9082961 -0.04296875 24.36328125 C-0.1864827 25.44707565 -0.32999664 26.53087006 -0.4778595 27.64750671 C-0.78260023 29.9212011 -1.09122478 32.19437804 -1.40356445 34.46704102 C-1.87567809 37.94249171 -2.31782435 41.42099166 -2.75976562 44.90039062 C-3.06065887 47.11743815 -3.36333144 49.33424508 -3.66796875 51.55078125 C-3.85893379 53.10554924 -3.85893379 53.10554924 -4.05375671 54.69172668 C-4.72023193 59.30941525 -5.21912783 62.00981254 -8.09106445 65.78198242 C-11.554659 68.24053205 -13.52936615 68.3054219 -17.6875 67.625 C-20.125 66.25 -20.125 66.25 -21.6875 63.625 C-22.74576375 56.76637921 -21.22749948 49.68999683 -20.125 42.921875 C-19.70757818 39.77630341 -19.61069307 36.79328593 -19.6875 33.625 C-22.2107627 36.28937665 -24.73064655 38.95692701 -27.25 41.625 C-28.30670898 42.74068359 -28.30670898 42.74068359 -29.38476562 43.87890625 C-33.36711437 48.09982888 -37.25732886 52.37882051 -41.05932617 56.76269531 C-43.50512202 59.5601958 -46.03057447 62.28061911 -48.5625 65 C-52.8861416 69.66333223 -57.16568453 74.36196176 -61.41015625 79.09765625 C-63.98559775 81.95582203 -66.58435764 84.79210261 -69.1875 87.625 C-73.26733792 92.06542432 -77.31237896 96.53548218 -81.33984375 101.0234375 C-85.75776753 105.91917333 -90.22472673 110.77017002 -94.6875 115.625 C-93.7987035 118.42751148 -92.93375465 121.13249071 -91.6171875 123.765625 C-86.88865136 133.22269729 -87.00833363 145.72393668 -90.25 155.6875 C-94.86978762 166.23547663 -103.07702337 174.44271238 -113.625 179.0625 C-124.39783795 182.54248979 -136.907953 182.18782611 -147.07421875 177.16796875 C-157.51911515 171.00095219 -164.09454744 163.36742593 -168 151.78125 C-170.07442635 142.2577472 -169.20566253 131.97817511 -166.6875 122.625 C-167.85539062 121.80322266 -167.85539062 121.80322266 -169.046875 120.96484375 C-176.24003735 115.87750574 -183.33532313 110.67272474 -190.375 105.375 C-192.07809825 104.0950165 -193.78122355 102.81506898 -195.484375 101.53515625 C-196.33837891 100.89336426 -197.19238281 100.25157227 -198.07226562 99.59033203 C-198.93529297 98.94177246 -199.79832031 98.29321289 -200.6875 97.625 C-201.56857422 96.96226074 -202.44964844 96.29952148 -203.35742188 95.61669922 C-205.94231239 93.67613207 -208.5328913 91.7434105 -211.125 89.8125 C-211.91156982 89.21985352 -212.69813965 88.62720703 -213.50854492 88.01660156 C-218.67701934 83.95951281 -218.67701934 83.95951281 -224.6875 81.625 C-227.04193617 82.58953583 -227.04193617 82.58953583 -229.25 84.3125 C-237.77432385 89.86410883 -247.61467457 92.02057763 -257.59765625 90.05078125 C-263.35726383 88.70187687 -268.17607383 86.98703979 -273.6875 84.625 C-295.1375 106.075 -316.5875 127.525 -338.6875 149.625 C-337.0375 153.585 -335.3875 157.545 -333.6875 161.625 C-331.07996319 174.66268405 -332.72666358 186.02897599 -339.90625 197.23828125 C-346.77056681 206.43586364 -356.36290058 211.82171984 -367.6875 213.625 C-379.86492807 214.81542165 -390.64626896 211.43418153 -400.2421875 203.89453125 C-409.2681445 195.51740503 -412.97487822 185.75698003 -413.6796875 173.66796875 C-413.70777609 162.72746459 -409.70329548 154.93553576 -403.9375 145.875 C-395.2705148 137.2080148 -384.78937001 132.56611987 -372.5 132.1875 C-366.2604324 132.41063685 -360.11653157 133.65990114 -354.65625 136.7890625 C-352.13696833 137.85875749 -351.23855447 137.54558119 -348.6875 136.625 C-346.80809729 135.17301529 -346.80809729 135.17301529 -345.04296875 133.30859375 C-344.02686523 132.28475586 -344.02686523 132.28475586 -342.99023438 131.24023438 C-341.94319336 130.16225586 -341.94319336 130.16225586 -340.875 129.0625 C-339.84536133 128.02512695 -339.84536133 128.02512695 -338.79492188 126.96679688 C-335.5921762 123.71557066 -332.50017716 120.4154191 -329.52441406 116.95532227 C-325.31185122 112.1206848 -320.8004702 107.61233887 -316.25390625 103.09375 C-314.9370005 101.77896667 -314.9370005 101.77896667 -313.5934906 100.43762207 C-310.81468504 97.66437204 -308.03240603 94.89463718 -305.25 92.125 C-303.35430135 90.23489195 -301.45940217 88.34398482 -299.56445312 86.453125 C-294.94144811 81.84108996 -290.31559343 77.23192859 -285.6875 72.625 C-286.04191162 71.71516357 -286.39632324 70.80532715 -286.76147461 69.86791992 C-291.39175731 57.55057143 -293.35156563 45.47534049 -287.9453125 32.98046875 C-281.96029233 21.77249619 -272.90802081 14.3651736 -260.9375 10.375 C-250.06405627 8.04346236 -238.72080118 9.40928836 -229.11328125 15.16796875 C-220.11755914 21.84221419 -212.77946366 30.34831971 -210.6875 41.625 C-210.56624337 44.17984908 -210.50240534 46.69552656 -210.5 49.25 C-210.48775391 49.91128906 -210.47550781 50.57257813 -210.46289062 51.25390625 C-210.44667965 56.88451796 -211.44040132 62.14624467 -212.6875 67.625 C-212.22190674 67.9653125 -211.75631348 68.305625 -211.27661133 68.65625 C-201.73737311 75.63691624 -192.25850305 82.68606737 -182.875 89.875 C-169.45198614 100.81508555 -169.45198614 100.81508555 -154.6875 109.625 C-154.14222656 109.22667969 -153.59695313 108.82835937 -153.03515625 108.41796875 C-142.63645882 101.11221722 -133.24761527 99.42348996 -120.6875 100.625 C-117.60575679 101.52354105 -114.81780877 102.56929428 -111.921875 103.9453125 C-109.7064517 104.8533492 -109.7064517 104.8533492 -107.59765625 103.9375 C-102.20348852 100.231078 -98.01510968 94.91820852 -93.76953125 89.9921875 C-91.12704273 86.98778216 -88.40930266 84.05746072 -85.6875 81.125 C-82.47575847 77.66227209 -79.27646567 74.19850931 -76.1875 70.625 C-72.62932153 66.51139854 -68.9290788 62.53404725 -65.23266602 58.54516602 C-61.43848736 54.44787931 -57.69195872 50.31080657 -53.96484375 46.15234375 C-51.38940085 43.29417642 -48.79048491 40.4580433 -46.1875 37.625 C-42.67741408 33.80077949 -39.17252674 29.97210744 -35.6875 26.125 C-34.98625 25.3515625 -34.285 24.578125 -33.5625 23.78125 C-31.83161329 21.79073029 -30.25749811 19.74272344 -28.6875 17.625 C-29.46351563 17.74617188 -30.23953125 17.86734375 -31.0390625 17.9921875 C-34.58760873 18.54267797 -38.13750877 19.08390968 -41.6875 19.625 C-42.90824219 19.81578125 -44.12898438 20.0065625 -45.38671875 20.203125 C-61.89343525 22.70143885 -61.89343525 22.70143885 -66.1875 20.125 C-67.98401226 17.13081291 -68.20248599 15.05601006 -68.31640625 11.625 C-67.2891031 8.35804837 -65.57028824 7.4584614 -62.6875 5.625 C-59.12606234 4.65042928 -55.52417864 4.18206308 -51.8671875 3.703125 C-50.28552292 3.47855621 -50.28552292 3.47855621 -48.67190552 3.24945068 C-46.44215882 2.93618372 -44.21130427 2.63071639 -41.97949219 2.33251953 C-38.59292633 1.87907395 -35.21062848 1.40069046 -31.828125 0.91796875 C-29.6538523 0.61569861 -27.47937841 0.31487146 -25.3046875 0.015625 C-24.30533173 -0.12494324 -23.30597595 -0.26551147 -22.27633667 -0.41033936 C-5.20559398 -2.66332715 -5.20559398 -2.66332715 0 0 Z M-271.875 37.3125 C-275.39391598 43.74362231 -276.53737475 50.32948881 -274.58203125 57.45703125 C-271.92767068 63.89008853 -267.01933032 69.55400542 -260.7265625 72.5625 C-254.13071617 75.15455189 -248.20890423 75.11071897 -241.48828125 72.90234375 C-234.98840931 70.0424001 -231.29831226 65.41707458 -227.8125 59.375 C-225.56943158 51.89810525 -225.7292217 44.72206463 -229.29296875 37.6953125 C-233.24662644 31.82573666 -238.90863536 27.6119086 -245.6875 25.625 C-257.22829136 24.08622782 -264.731011 28.53559923 -271.875 37.3125 Z M-147.6875 125.625 C-152.71331167 132.60529399 -153.5767085 138.1361607 -152.6875 146.625 C-150.47856094 154.02597805 -146.3886284 158.86830681 -139.6875 162.625 C-133.37428037 165.60137924 -126.50778688 165.85445697 -119.859375 163.71484375 C-112.15069043 160.12592024 -108.09145533 155.44464183 -104.6875 147.625 C-103.44821647 139.51681937 -104.04912639 132.57036972 -108.765625 125.75390625 C-113.13106552 120.91820486 -118.71287886 116.98418798 -125.32421875 116.38671875 C-135.10624991 116.1487436 -141.19942113 118.05557465 -147.6875 125.625 Z M-391.6875 156.625 C-395.94996066 162.52221119 -398.09034024 168.30481742 -397.6875 175.625 C-396.39842477 182.12277756 -393.87530761 188.35787806 -388.34765625 192.2890625 C-381.85325975 196.31349029 -376.48349042 198.61496704 -368.6875 197.625 C-361.45265263 195.37252637 -355.32596543 191.66625651 -351.375 185.0625 C-348.13688597 178.46634179 -347.47921153 171.55476632 -349.8125 164.5 C-352.86576222 157.33767462 -357.77658617 152.95247703 -364.6875 149.625 C-374.49264936 146.69720991 -384.50403961 149.24199904 -391.6875 156.625 Z " fill="#000000" transform="translate(445.6875,56.375)"/>
</svg>
