<?xml version="1.0" encoding="UTF-8"?>
<svg version="1.1" xmlns="http://www.w3.org/2000/svg" width="512" height="512">
<path d="M0 0 C1.88623592 -0.00543602 3.77246759 -0.01256688 5.65869141 -0.02124023 C10.7290206 -0.03930077 15.79902013 -0.03247827 20.86935425 -0.01972389 C26.2078329 -0.00950579 31.54628572 -0.01901378 36.88476562 -0.02526855 C45.84510295 -0.03251954 54.80530784 -0.02302451 63.765625 -0.00390625 C74.08414576 0.01785749 84.40235023 0.01080431 94.72086334 -0.01121187 C103.62418551 -0.02943886 112.52741317 -0.03188869 121.43074799 -0.0214572 C126.72903111 -0.0152622 132.02716619 -0.01427539 137.32543945 -0.02760315 C142.30961712 -0.03926796 147.2933921 -0.03094448 152.27752686 -0.00802612 C154.09258358 -0.00279524 155.90767496 -0.00415461 157.72271729 -0.01307678 C185.57935146 -0.13725074 209.54122708 8.94104589 229.68359375 28.51757812 C248.71020296 47.96327565 256.7114274 73.98157154 256.66496277 100.68823242 C256.66722833 101.66160647 256.66949388 102.63498053 256.67182809 103.63785076 C256.67811641 106.87251182 256.67734208 110.10713042 256.67651367 113.34179688 C256.67950831 115.67184503 256.68291154 118.00189269 256.68669128 120.3319397 C256.69550242 126.64173775 256.69786812 132.95152223 256.69850707 139.26132584 C256.69921897 143.20631297 256.70135591 147.15129668 256.70400429 151.09628296 C256.71277033 164.15687846 256.71742519 177.21746544 256.71667381 190.27806389 C256.71661388 191.33199941 256.71661388 191.33199941 256.71655273 192.40722656 C256.71651185 193.11071476 256.71647097 193.81420295 256.71642885 194.53900898 C256.71602222 205.94505094 256.72559909 217.35105993 256.7396911 228.75709236 C256.75407094 240.48924832 256.76096047 252.22138821 256.76009732 263.9535532 C256.75984259 270.53215069 256.76268044 277.11071079 256.77327538 283.68930054 C256.78296625 289.87485438 256.78302869 296.06033514 256.77575874 302.24589157 C256.77471429 304.51218142 256.77706752 306.77847584 256.7831192 309.04475784 C256.7908614 312.14556525 256.78617958 315.24612164 256.77848816 318.34692383 C256.78363172 319.23701991 256.78877529 320.12711599 256.79407471 321.04418468 C256.72535307 333.63835727 253.66526265 345.38356547 244.53125 354.51757812 C236.44315923 360.83591391 227.79202378 364.63419462 217.41769981 364.64900589 C216.40434354 364.65284703 215.39098727 364.65668818 214.34692323 364.66064572 C212.68746201 364.659346 212.68746201 364.659346 210.99447632 364.65802002 C209.22336469 364.6624767 209.22336469 364.6624767 207.41647303 364.66702342 C204.1425417 364.67419536 200.86864238 364.67688209 197.59470439 364.67762089 C194.06216391 364.67947428 190.52963475 364.68702312 186.99710083 364.6937561 C179.27376571 364.70732903 171.5504358 364.71336268 163.82709074 364.71776676 C159.00219456 364.72053125 154.17730038 364.72476901 149.35240555 364.72927094 C135.98714257 364.74146282 122.62188119 364.75176192 109.25661278 364.75514603 C108.4014483 364.75536559 107.54628383 364.75558516 106.66520528 364.75581138 C105.80802091 364.75602966 104.95083655 364.75624793 104.0676769 364.75647283 C102.33076247 364.75691629 100.59384803 364.75736285 98.85693359 364.7578125 C97.56458555 364.75814464 97.56458555 364.75814464 96.24612947 364.7584835 C82.29262379 364.76242964 68.33917039 364.77987841 54.38568489 364.80317202 C40.0512641 364.82690787 25.71686952 364.83934891 11.38242877 364.84051394 C3.33768085 364.84142951 -4.70699895 364.84715186 -12.75172806 364.86533356 C-19.60352383 364.88076479 -26.45523044 364.88583727 -33.30704029 364.87759545 C-36.8000646 364.87369946 -40.29290954 364.87456674 -43.78591156 364.8886528 C-47.58078597 364.90137346 -51.37520299 364.89549414 -55.17007446 364.8850708 C-56.80945919 364.89715541 -56.80945919 364.89715541 -58.4819628 364.90948415 C-68.92992956 364.84257425 -78.00607015 362.81995362 -86.46875 356.51757812 C-87.70431641 355.61458984 -87.70431641 355.61458984 -88.96484375 354.69335938 C-91.63785169 352.37063641 -93.28750058 350.14097608 -95.15625 347.14257812 C-95.73761719 346.22734375 -96.31898437 345.31210937 -96.91796875 344.36914062 C-101.34131918 336.23552396 -101.61810389 327.78525579 -101.60246277 318.74133301 C-101.60472833 317.77405006 -101.60699388 316.80676711 -101.60932809 315.81017256 C-101.61564413 312.57786322 -101.61484025 309.34559607 -101.61401367 306.11328125 C-101.61700675 303.79178819 -101.62040962 301.47029562 -101.62419128 299.14880371 C-101.63302263 292.8467565 -101.6353691 286.54472286 -101.63600707 280.24267006 C-101.63671833 276.30117782 -101.63885413 272.35968902 -101.64150429 268.41819763 C-101.65027908 255.36520599 -101.65492435 242.31222289 -101.65417381 229.25922829 C-101.65413386 228.55622202 -101.6540939 227.85321574 -101.65405273 227.12890625 C-101.65401185 226.4250331 -101.65397097 225.72115995 -101.65392885 224.99595731 C-101.65352299 213.60603543 -101.66307805 202.2161467 -101.6771911 190.8262344 C-101.69159432 179.10883943 -101.69845904 167.39146057 -101.69759732 155.67405653 C-101.69734303 149.10475652 -101.70015587 142.535494 -101.71077538 135.96620178 C-101.72050124 129.78067216 -101.72050487 123.59521551 -101.71325874 117.40968323 C-101.71221831 115.14872124 -101.71454337 112.8877546 -101.7206192 110.62680054 C-101.80174627 78.32581639 -95.70370064 50.67500446 -72.8125 26.74023438 C-52.37961404 7.23884763 -27.69431406 -0.13613644 0 0 Z M-50.46875 99.51757812 C-50.46875 133.83757812 -50.46875 168.15757812 -50.46875 203.51757812 C-15.15875 203.51757812 20.15125 203.51757812 56.53125 203.51757812 C56.53125 169.19757813 56.53125 134.87757813 56.53125 99.51757812 C21.22125 99.51757812 -14.08875 99.51757812 -50.46875 99.51757812 Z M97.53125 99.51757812 C97.53125 133.83757812 97.53125 168.15757812 97.53125 203.51757812 C133.17125 203.51757812 168.81125 203.51757812 205.53125 203.51757812 C205.53125 169.19757813 205.53125 134.87757813 205.53125 99.51757812 C169.89125 99.51757812 134.25125 99.51757812 97.53125 99.51757812 Z M-44.90625 269.83007812 C-49.12220089 275.35978142 -51.11669896 281.18985328 -50.8046875 288.16210938 C-49.62056231 296.46475457 -46.1046686 301.56048547 -39.78515625 306.92382812 C-34.61890743 310.4783467 -28.70174515 311.96142616 -22.45703125 311.30664062 C-14.35018877 309.61837873 -8.30793636 305.34562466 -3.66015625 298.54492188 C0.11943832 292.11341505 0.17307968 285.6321734 -1.46875 278.51757812 C-4.53725706 270.89014629 -9.21599566 266.26138084 -16.46875 262.51757812 C-26.90298269 259.03950056 -37.45277713 261.84552243 -44.90625 269.83007812 Z M161.09375 270.26757812 C156.7032415 276.92817909 154.79182514 283.13543036 155.96484375 291.09960938 C157.70046597 298.5089208 161.34604917 303.18658411 167.53125 307.51757812 C173.44233013 311.16484033 179.26570951 312.09625363 186.03125 310.95507812 C192.92892797 309.1919411 198.70887245 304.46349875 202.53125 298.51757812 C206.02716633 291.64681616 206.80057138 284.77506906 204.40625 277.39257812 C201.29323012 270.17668412 196.4456575 265.6316722 189.3046875 262.40429688 C178.82176957 259.05271607 168.11053152 261.6474534 161.09375 270.26757812 Z " fill="#000000" transform="translate(178.46875,13.482421875)"/>
<path d="M0 0 C1.62291962 0.01061211 1.62291962 0.01061211 3.27862549 0.0214386 C6.73332949 0.04942081 10.18641111 0.11216994 13.640625 0.17578125 C15.98304951 0.20085901 18.32549942 0.22367308 20.66796875 0.24414062 C26.40940744 0.29925997 32.14990032 0.38292537 37.890625 0.48828125 C36.51862617 3.29777365 35.06694481 5.74463735 33.17578125 8.23828125 C32.39364258 9.2746875 32.39364258 9.2746875 31.59570312 10.33203125 C30.78262695 11.399375 30.78262695 11.399375 29.953125 12.48828125 C29.41494141 13.19984375 28.87675781 13.91140625 28.32226562 14.64453125 C27.31665654 15.97377038 26.30973019 17.3020148 25.30102539 18.62890625 C23.82365837 20.57656545 22.35737524 22.53261426 20.890625 24.48828125 C82.930625 24.48828125 144.970625 24.48828125 208.890625 24.48828125 C201.05294903 14.27968796 201.05294903 14.27968796 193.0703125 4.1953125 C191.890625 2.48828125 191.890625 2.48828125 191.890625 0.48828125 C198.64737997 0.10501994 205.40130475 -0.15584438 212.16650391 -0.33569336 C214.46216487 -0.41070969 216.75711899 -0.51277401 219.05029297 -0.64331055 C237.52784151 -1.66805497 237.52784151 -1.66805497 243.0642395 1.88208008 C246.77073182 5.31477098 249.39651767 9.3138532 251.86517334 13.69393921 C253.13210837 15.91083044 254.63262103 17.86744891 256.23046875 19.85546875 C257.09869339 21.02300368 257.96464699 22.19223148 258.828125 23.36328125 C259.82742949 24.70624697 260.82745526 26.04867624 261.828125 27.390625 C262.32957031 28.06335449 262.83101563 28.73608398 263.34765625 29.42919922 C265.98346353 32.94666736 268.65502112 36.43661826 271.328125 39.92578125 C272.13817993 40.98321533 272.13817993 40.98321533 272.96459961 42.06201172 C274.05937531 43.4905466 275.15434634 44.9189318 276.24951172 46.34716797 C278.96637932 49.89178695 281.67823215 53.44023779 284.390625 56.98828125 C285.46613384 58.39454042 286.5416547 59.8007904 287.6171875 61.20703125 C289.86299689 64.14375491 292.10762762 67.08137507 294.3515625 70.01953125 C294.91979736 70.76323975 295.48803223 71.50694824 296.07348633 72.27319336 C297.18584493 73.72932229 298.29767706 75.18585359 299.40893555 76.64282227 C302.82322813 81.11375633 306.28005858 85.54639398 309.81640625 89.921875 C310.890625 91.48828125 310.890625 91.48828125 310.890625 93.48828125 C304.13387003 93.87154256 297.37994525 94.13240688 290.61474609 94.31225586 C288.31908513 94.38727219 286.02413101 94.48933651 283.73095703 94.61987305 C265.23128527 95.6458444 265.23128527 95.6458444 259.70291138 92.0753479 C256.04449937 88.67328522 253.44917989 84.75664464 251.01832581 80.42024231 C249.21764609 77.33534331 247.02567817 74.61393046 244.828125 71.80078125 C240.90570424 66.51975665 240.90570424 66.51975665 239.87598896 64.37039757 C236.56562569 61.23218772 232.67699712 61.88907099 228.28495789 61.88613892 C227.28771865 61.87002103 226.29047942 61.85390315 225.26302081 61.83729684 C221.90535287 61.7883758 218.54814236 61.76838938 215.19018555 61.74853516 C212.78882602 61.72020815 210.38748383 61.69037697 207.98616028 61.65914917 C200.76603232 61.57270945 193.54591083 61.52117451 186.32543465 61.47757345 C183.60397318 61.46065848 180.88252977 61.44146774 178.16108363 61.42226351 C166.15625709 61.3378921 154.15141606 61.26603075 142.14634991 61.22713661 C139.20783639 61.21745796 136.26932319 61.20769393 133.33081055 61.19775391 C132.60048816 61.19529432 131.87016578 61.19283474 131.11771242 61.19030063 C119.30558025 61.14845622 107.49545169 61.03144496 95.68422725 60.88298889 C83.54544634 60.73167049 71.40768438 60.64881381 59.26795989 60.632007 C52.45643639 60.62087862 45.64794268 60.5802978 38.83734703 60.46287918 C32.42135101 60.3558397 26.01068972 60.33516343 19.59400749 60.37916946 C17.24697131 60.38059764 14.89967525 60.3515228 12.55347824 60.28874969 C0.43044459 59.70617482 0.43044459 59.70617482 -10.42060447 64.23354483 C-15.23305216 69.04893283 -18.79631192 74.57435567 -22.109375 80.48828125 C-22.51362375 81.20231715 -22.9178725 81.91635306 -23.33437121 82.65202641 C-23.71001692 83.31632877 -24.08566262 83.98063113 -24.47269154 84.66506386 C-26.56657384 88.32939775 -28.38853994 91.41074716 -32.109375 93.48828125 C-40.27669317 95.5502042 -48.90726511 94.70849719 -57.234375 94.30078125 C-59.54931697 94.23550546 -61.8644355 94.1762015 -64.1796875 94.12304688 C-69.82679555 93.98044835 -75.46726061 93.76356373 -81.109375 93.48828125 C-79.83091861 90.88195204 -78.5297983 88.54998586 -76.78125 86.23046875 C-76.31847656 85.61429687 -75.85570313 84.998125 -75.37890625 84.36328125 C-74.62673828 83.37328125 -74.62673828 83.37328125 -73.859375 82.36328125 C-73.33214844 81.66460937 -72.80492188 80.9659375 -72.26171875 80.24609375 C-67.67382642 74.18620786 -63.00325901 68.19147181 -58.32324219 62.20263672 C-54.52858999 57.33884804 -50.79490492 52.435169 -47.109375 47.48828125 C-42.27431354 40.9984394 -37.32643798 34.60361506 -32.34228516 28.2277832 C-27.82652254 22.43964767 -23.39701443 16.59157708 -19.015625 10.70117188 C-18.55929688 10.08822266 -18.10296875 9.47527344 -17.6328125 8.84375 C-17.0437915 8.04940552 -17.0437915 8.04940552 -16.44287109 7.23901367 C-16.00281738 6.66127197 -15.56276367 6.08353027 -15.109375 5.48828125 C-14.62645996 4.60414551 -14.14354492 3.72000977 -13.64599609 2.80908203 C-9.58468616 -0.90668431 -5.30524692 -0.13024483 0 0 Z " fill="#000000" transform="translate(141.109375,404.51171875)"/>
</svg>
